<?xml version="1.0" encoding="utf-8"?>
<!-- Generator: Adobe Illustrator 25.2.0, SVG Export Plug-In . SVG Version: 6.00 Build 0)  -->
<svg version="1.1" id="Layer_1" xmlns="http://www.w3.org/2000/svg" xmlns:xlink="http://www.w3.org/1999/xlink" x="0px" y="0px"
	 viewBox="0 0 1396.34 303.5" style="enable-background:new 0 0 1396.34 303.5;" xml:space="preserve">
<style type="text/css">
	.st0{fill:#FFFFFF;}
</style>
<path d="M559.46,103.76c-8.04,7.27-14.51,12.41-20.12,18.36c-8.18,8.67-15.83,17.85-23.56,26.93
	c-12.04,14.15-24.04,28.33-35.88,42.65c-7.22,8.73-10.96,9.19-20.1,1.93c-1.18-0.94-3.03-1.03-4.57-1.52
	c-2.86-8.04,0.57-15.02,3.36-22.1c6.84-17.32,13.7-34.63,20.44-51.99c0.91-2.34,1.21-4.92,2.16-8.95c-3.37,1.31-5.41,1.89-7.25,2.87
	c-13.76,7.28-26.28,16.83-41.18,22.05c-6.88,2.41-13.73,5.01-20.33,8.1c-7.37,3.45-6.77,3.94-4.93,11.45
	c3.16,12.85,5.8,25.85,7.92,38.9c0.65,3.97-1.13,8.33-1.68,11.82c-5.9,3.48-8.97-0.15-12.54-2.43c-4.69-3.01-3.38-6.54-1.39-10.33
	c0.28-0.54,0.38-1.34,0.23-1.93c-3.21-12.79-4.89-26.06-11.41-38.64c-11.12,6.01-22.74,7.96-34.49,9.9
	c-9.46,1.56-19.1,3.7-27.85,7.47c-7.54,3.25-15.44,6.71-20.2,14.83c-5.69,9.69-12.65,18.63-19.07,27.89
	c-2.34,3.38-5.57,4.42-9.56,3.76c-3.8-9.16-2.65-17.3,3.39-24.95c3.29-4.17,6.05-8.76,9.21-13.04c3.61-4.88,6.88-9.63,5.89-16.35
	c-0.31-2.09,1.24-5.99,2.85-6.58c13.68-5.03,21.46-16.35,30.04-26.91c11.66-14.35,25.63-26.02,41.76-35.12
	c1.41-5.39-2.96-11.43,2.45-16.52c6.18,2.63,11.02,5.87,13.31,13.1c3.8,11.97,8.72,23.58,13.62,36.55
	c16.44-3.61,32.69-8.79,47.94-16.86c15.26-8.07,30.37-16.4,46.15-24.94c1.48,2.51,2.5,4.82,4.01,6.73c6.38,8.07,6.17,7.9,1.94,16.61
	c-1.99,4.1-2.78,8.8-4.03,13.24c-2.7,9.59-4.72,19.49-12.45,26.75c-0.66,0.62-0.91,1.76-1.13,2.71c-0.14,0.59,0.12,1.28,0.21,2
	c3.19,2.51,5.94,0.34,7.94-1.51c5.08-4.7,9.97-9.67,14.49-14.92c13.68-15.87,27.6-31.48,44.13-44.51c1.83-1.44,3.53-3.19,5.59-4.15
	c3.87-1.8,6.89-1.57,10.41,2.25c6.68,7.26,9.44,14.73,6.72,24.44c-2.68,9.57-4.69,19.32-6.88,29.02c-0.26,1.14,0.19,2.43,0.42,4.68
	c8-4.67,12.9-11.31,18.66-17.03c14.37-14.25,28.89-28.35,43.61-42.24c3.32-3.13,7.53-5.43,11.6-7.61c5.95-3.18,12.89-6.3,18.93-2.44
	c8.02,5.12,13.19,12.95,11.18,23.35c-2.2,11.39-4.36,22.69-8.84,33.62c-5.9,14.4-10.23,29.45-15.24,44.22
	c-0.43,1.26-0.75,2.59-1.39,3.74c-1.97,3.52-5.15,3.6-7.77,0.47c-5.2-6.21-5.08-12.53-1.1-19.34c11.27-19.25,15.2-41.07,21.38-62.09
	c0.72-2.45,0.63-5.14,0.93-7.92c-4.87-2.53-8.97-1.11-12.4,1.6c-9.35,7.38-18.92,14.6-27.51,22.8
	c-9.55,9.11-18.31,19.08-27.06,28.99c-9.43,10.68-18.2,21.93-27.78,32.46c-2.91,3.2-7.53,4.85-11.73,7.44
	c-1.42-1.71-2.27-3.1-3.44-4.09c-7.9-6.71-7.43-6.53-4.45-15.94c5.81-18.36,11.03-36.91,16.39-55.41
	C559.83,109.63,559.46,107.92,559.46,103.76z M341.75,139.22c14.54-0.16,27.99-2.96,41.21-8.82c-2.58-8.62-4.79-15.98-7.69-25.67
	C363.01,117.19,349.74,125.21,341.75,139.22z"/>
<path d="M860.06,116.97c-1.45,1.21-2.87,3.26-4.71,3.77c-11.46,3.18-23.05,5.91-34.53,9.01c-9.9,2.68-19.74,5.55-29.55,8.54
	c-5.75,1.75-15.81-1.76-19.15-7.02c-3.14-4.94-2.61-10.27,2.18-15.4c1.67-1.79,4.27-3.07,6.68-3.76
	c20.77-5.94,42.03-5.67,63.33-4.72C850.96,107.68,856.35,109.93,860.06,116.97z"/>
<path class="st0" d="M341.75,139.22c7.99-14.01,21.26-22.03,33.52-34.49c2.9,9.69,5.11,17.05,7.69,25.67
	C369.74,136.26,356.29,139.06,341.75,139.22z"/>
</svg>
