<svg id="Layer_1" data-name="Layer 1" xmlns="http://www.w3.org/2000/svg" viewBox="0 0 1238.86 1091.06"><defs><style>.cls-1{fill:#fff;}</style></defs><path d="M1237.76,1088.73c.48.69,1.19,1.46,1.09,1.59a14.16,14.16,0,0,1-1.95,1.74c-.4-.55-1.25-1.42-1.13-1.6A10.19,10.19,0,0,1,1237.76,1088.73Z" transform="translate(0 -1)"/><path class="cls-1" d="M0,3.17a.32.32,0,0,0,0-.09.94.94,0,0,1,.06-.15l0-.09A.5.5,0,0,1,.21,2.7a1.12,1.12,0,0,1,.18-.2l0,0,0,0a.34.34,0,0,0,.12-.12s0,0,.05,0h0a.24.24,0,0,1,.08-.06l.09-.06,0,0A.12.12,0,0,0,1,2.09s0,0,0,0L1,2s0,0,.05,0h0L1.24,2a.14.14,0,0,0,.11-.09s0,0,0,0,0,0,.05,0l0,0,.06,0,.05,0a.05.05,0,0,0,0,0l.06,0,.05,0a.1.1,0,0,1,.05,0l.12,0L2,1.53l.13,0,.08,0,0,0,.05,0h0a.42.42,0,0,0,.16,0l.05,0h0l.13,0,.07,0s0,0,.08,0a.85.85,0,0,0,.17,0l.19,0,.07,0a.3.3,0,0,1,.16,0l.15,0,.17,0L4,1H4.3a.48.48,0,0,0,.12,0,.78.78,0,0,1,.22,0l.07,0a.48.48,0,0,1,.17.05A.84.84,0,0,0,5,1.16a.31.31,0,0,1,.12.05,1.48,1.48,0,0,1,.13.08.23.23,0,0,1,.1.12.25.25,0,0,1,0,.09.16.16,0,0,0,0,.09h.08l0,0v0a.49.49,0,0,0-.08-.21s0,0,0,0l0,0a.53.53,0,0,0-.12-.1l-.07,0-.09-.06a.06.06,0,0,1,0,0,0,0,0,0,1,0,0h0a.32.32,0,0,1,.14,0l.05,0a.61.61,0,0,0,.14.07,1,1,0,0,1,.18.08h0a.79.79,0,0,1,.19.22l0,.13v0a.35.35,0,0,1,0,.14v0s0,.06,0,.1,0,.07,0,.11,0,0,0,0a1.17,1.17,0,0,1-.06.2l-.06.14-.06.1,0,.06c0,.07-.1.14-.14.21l0,0-.08.1L5.27,3l0,0s0,0,0,0-.07.08-.11.12a.52.52,0,0,0-.11.1A.34.34,0,0,0,5,3.34h0l-.12.1-.06.06-.23.2h0s-.09.07-.13.1l-.08.07L4.14,4,4,4.11l-.17.12-.09,0-.13.09-.1.07s-.07,0-.09.06l-.1,0-.08,0-.08.05,0,0a.21.21,0,0,0-.1.06l-.1.06,0,0-.08,0s-.05,0-.08,0l0,0s-.08,0-.12.05L2.49,5l0,0L2.27,5h0a.17.17,0,0,1-.11,0h0a.07.07,0,0,1-.06,0,.3.3,0,0,0-.13,0h0a.34.34,0,0,0-.14,0H1.6a1.09,1.09,0,0,1-.26-.05L1.2,5a.88.88,0,0,1-.15,0,.18.18,0,0,0-.1,0l0,0a.65.65,0,0,1-.15-.1l-.07,0a.13.13,0,0,1-.07-.06l0,0h0a1.49,1.49,0,0,1-.12-.14s0,0,0,0a.39.39,0,0,1-.08-.1l0,0v0s0,0-.06-.08a.47.47,0,0,0-.06-.09.25.25,0,0,1,0-.07A.28.28,0,0,0,.14,4a.27.27,0,0,1,0-.12l0,0s0,0,0,0A.57.57,0,0,0,0,3.7a.09.09,0,0,1,0-.05s0,0,0,0,0,0,0-.06a.07.07,0,0,1,0,0v0a1.33,1.33,0,0,0,0-.2v0S0,3.19,0,3.17ZM3.11,2.6l.06,0,.06.07.14.09.11,0a.86.86,0,0,0,.17,0h.14A1.06,1.06,0,0,0,4,2.82a.75.75,0,0,0,.2-.1l.09-.05a.45.45,0,0,0,.13-.1l0,0,.15-.11a.06.06,0,0,0,0-.08.13.13,0,0,0-.2-.09l-.08.07,0,0-.16.12,0,0c-.08,0-.14.08-.22.11l-.12,0h0l-.16,0a.18.18,0,0,1-.16,0l-.08-.09a.21.21,0,0,1-.07-.15.14.14,0,0,1,0-.09l.05-.15a0,0,0,0,1,0,0s0,0,0-.07,0,0,0,0a.4.4,0,0,0,0-.15.23.23,0,0,0-.26-.12S3,1.76,3,1.8a.49.49,0,0,1,0,.12,2.25,2.25,0,0,1,0,.26v0s0,.08,0,.12v0a.25.25,0,0,1,0,.09.69.69,0,0,1-.11.13l-.06.09,0,0-.08.07a.27.27,0,0,1-.08.07h0a.37.37,0,0,1-.09-.16l-.06-.12-.06-.11-.05-.11s0,0,0,0a.19.19,0,0,0-.08-.11v0s-.07,0-.11,0-.09,0-.06.11a.06.06,0,0,1,0,0,0,0,0,0,0,0,0s0,.07,0,.11a.15.15,0,0,1,0,.07,1.25,1.25,0,0,1,0,.19l0,.11C2,2.86,2,2.94,2,3V3a.56.56,0,0,0-.05.08l-.09.18,0,0-.19.06H1.3a.14.14,0,0,1-.09,0H1a.1.1,0,0,0-.07,0A.08.08,0,0,0,1,3.5l0,0A.09.09,0,0,0,1,3.6h.1l.11,0h.05a.41.41,0,0,1,.11,0h.17s0,0,0,0a0,0,0,0,1,0,0,1,1,0,0,1-.08.11s0,.09-.09.11a1.1,1.1,0,0,1-.09.14,1,1,0,0,1-.08.11l0,0,0,0,0,0a.1.1,0,0,1,0,0s0,0,0,.05a.33.33,0,0,1-.06.1.08.08,0,0,0,0,0s0,0,0,0a.09.09,0,0,0,0,.08.26.26,0,0,0,.15,0,.18.18,0,0,0,.08-.07.31.31,0,0,0,.07-.09s0-.06.05-.09h0a.55.55,0,0,0,.13-.17l0,0L1.63,4l0,0,.05-.06.05-.09s0,0,0-.06,0,0,0,0h0a.16.16,0,0,0,0-.07.34.34,0,0,1,.07-.11s0,0,.05,0l.14,0,.23,0h0l.18.11A1.07,1.07,0,0,1,2.88,4a0,0,0,0,0,.05,0A.14.14,0,0,1,3,4s0,0,0,0a.07.07,0,0,0,0-.06L3,3.73l0-.07,0-.06a.43.43,0,0,1,0-.07l-.1-.21a.64.64,0,0,1-.06-.18s0,0,0-.06L2.79,3a.73.73,0,0,1,.08-.09A.3.3,0,0,0,3,2.79s0,0,0,0,0,0,0,0Zm1.3-1h0s0,0-.06,0,0,0,0,.06v0s0,0,0,0a.31.31,0,0,0,.22.09s.06,0,.06-.06a.07.07,0,0,0,0-.06l-.06-.06A.14.14,0,0,0,4.41,1.65Z" transform="translate(0 -1)"/><path class="cls-1" d="M3.25,4.73s0,0,0,0h0a.21.21,0,0,1-.1,0h0v0l.1,0h0s0,0,0,0Z" transform="translate(0 -1)"/><path class="cls-1" d="M3.25,4.73a.26.26,0,0,1,.11-.07h0a.17.17,0,0,1-.08.06Z" transform="translate(0 -1)"/><path class="cls-1" d="M3.46,4.6s0,0,0,0S3.45,4.61,3.46,4.6Z" transform="translate(0 -1)"/><path d="M3.11,2.6l-.06.13s0,0,0,0,0,0,0,0a.3.3,0,0,1-.11.14A.73.73,0,0,0,2.79,3l-.07.06s0,0,0,.06a.64.64,0,0,0,.06.18l.1.21a.43.43,0,0,0,0,.07l0,.06,0,.07.1.18a.07.07,0,0,1,0,.06s0,0,0,0a.14.14,0,0,0-.09,0,0,0,0,0,1-.05,0,1.07,1.07,0,0,0-.31-.25l-.18-.11h0l-.23,0L2,3.53s0,0-.05,0a.34.34,0,0,0-.07.11.16.16,0,0,1,0,.07h0s0,0,0,0,0,0,0,.06l-.05.09L1.66,4l0,0-.12.16,0,0a.55.55,0,0,1-.13.17h0s0,.06-.05.09a.31.31,0,0,1-.07.09.18.18,0,0,1-.08.07.26.26,0,0,1-.15,0,.09.09,0,0,1,0-.08s0,0,0,0a.08.08,0,0,1,0,0,.33.33,0,0,0,.06-.1s0,0,0-.05a.1.1,0,0,0,0,0l0,0,0,0,0,0a1,1,0,0,0,.08-.11,1.1,1.1,0,0,0,.09-.14c.05,0,.06-.08.09-.11a1,1,0,0,0,.08-.11,0,0,0,0,0,0,0s0,0,0,0H1.4a.41.41,0,0,0-.11,0H1.24l-.11,0H1A.09.09,0,0,1,1,3.53l0,0a.08.08,0,0,1,0-.08.1.1,0,0,1,.07,0h.18a.14.14,0,0,0,.09,0h.32l.19-.06,0,0,.09-.18A.56.56,0,0,1,2,3V3c0-.07,0-.15.08-.22l0-.11a1.25,1.25,0,0,0,0-.19.15.15,0,0,0,0-.07s0-.07,0-.11a0,0,0,0,1,0,0,.06.06,0,0,0,0,0c0-.07,0-.1.06-.11s.09,0,.11,0v0a.19.19,0,0,1,.08.11s0,0,0,0l.05.11.06.11.06.12a.37.37,0,0,0,.09.16h0a.27.27,0,0,0,.08-.07l.08-.07,0,0,.06-.09A.69.69,0,0,0,3,2.43a.25.25,0,0,0,0-.09v0s0-.08,0-.12v0a2.25,2.25,0,0,0,0-.26A.49.49,0,0,0,3,1.8s0-.05.06-.05a.23.23,0,0,1,.26.12.4.4,0,0,1,0,.15s0,0,0,0,0,0,0,.07a0,0,0,0,0,0,0l-.05.15a.14.14,0,0,0,0,.09.21.21,0,0,0,.07.15l.08.09a.18.18,0,0,0,.16,0l.16,0h0l.12,0c.08,0,.14-.08.22-.11l0,0,.16-.12,0,0,.08-.07a.13.13,0,0,1,.2.09.06.06,0,0,1,0,.08l-.15.11,0,0a.45.45,0,0,1-.13.1l-.09.05a.75.75,0,0,1-.2.1,1.06,1.06,0,0,1-.19.06H3.65a.86.86,0,0,1-.17,0l-.11,0-.14-.09-.06-.07Zm-.92.84c.05,0,.08,0,.12,0l0,0,0,0,.12,0,.1.05h0s0,0,0,0a.3.3,0,0,0,0-.08.39.39,0,0,0-.06-.11,0,0,0,0,1,0,0l0-.1-.05,0,0,0-.12.07Zm.08-.7a.36.36,0,0,0,0,.07A.58.58,0,0,1,2.19,3s0,.06,0,.08a0,0,0,0,1,0,0s0,0,0,0a.14.14,0,0,1,0,.06v0l0,0,.06,0,.07,0L2.37,3s0,0,0,0a1.45,1.45,0,0,1-.09-.22S2.28,2.75,2.27,2.74Z" transform="translate(0 -1)"/><path d="M4.41,1.65a.14.14,0,0,1,.12.06l.06.06a.07.07,0,0,1,0,.06s0,0-.06.06a.31.31,0,0,1-.22-.09s0,0,0,0v0s0,0,0-.06,0,0,.06,0Z" transform="translate(0 -1)"/><path class="cls-1" d="M2.19,3.44l.09-.06.12-.07,0,0,.05,0,0,.1a0,0,0,0,0,0,0,.39.39,0,0,1,.06.11.3.3,0,0,1,0,.08s0,0,0,0h0l-.1-.05-.12,0,0,0,0,0S2.24,3.44,2.19,3.44Z" transform="translate(0 -1)"/><path class="cls-1" d="M2.27,2.74s0,0,0,0A1.45,1.45,0,0,0,2.38,3s0,0,0,0l-.09.06-.07,0-.06,0,0,0v0a.14.14,0,0,0,0-.06s0,0,0,0a0,0,0,0,0,0,0s0,0,0-.08a.58.58,0,0,0,.05-.14A.36.36,0,0,1,2.27,2.74Z" transform="translate(0 -1)"/></svg>