<svg id="Layer_1" data-name="Layer 1" xmlns="http://www.w3.org/2000/svg" viewBox="0 0 2647.84 652.84"><defs><style>.cls-1{fill:#fff;}</style></defs><path d="M1888.91,556.67c3.08-5.09,5.53-10.72,9.37-15.14,8.7-10,18.13-19.37,27.16-29.09,1.55-1.66,2.4-4,4-5.6,1.22-1.28,3.14-2.92,4.6-2.79,5.89.54,8.42-3.14,10.35-7.53,3.1-7,8.51-11.49,14.76-15.72s12.91-8.28,18.12-14.26c3.17-3.65,7.89-6,12.06-8.74a267.87,267.87,0,0,1,66.33-32,11.64,11.64,0,0,0,7.9-6.92c18.94-44.79,36.17-90.22,50.9-136.57.48-1.51.67-3.1-.56-5.83-2.28,2.46-4.77,4.77-6.82,7.41-13.89,17.86-29.24,34.29-46.85,48.57-2.27,1.85-3.89,4.5-5.86,6.74A52.32,52.32,0,0,1,2049,345c-5,4.2-10.42,7.89-15.21,12.28-10,9.18-19.55,18.88-29.63,28-10.83,9.81-21.94,19.33-33.15,28.71-12,10-23.94,20-36.35,29.39-5.23,4-11.52,6.58-17.42,9.64-1.41.73-3.5,1.5-4.73,1-5.94-2.54-12.42-4.71-15.75-10.83-3-5.48-2.18-10.09,2.53-14.48a127.59,127.59,0,0,1,13.3-10.5c17.35-12.35,35-24.31,52.14-36.92,16.06-11.8,32.1-23.73,47.35-36.55,26.46-22.23,53.29-44.19,76.3-70.13,11.46-12.91,22-26.71,32.29-40.57a65.77,65.77,0,0,0,12.13-28.2c.58-3.36,2.57-6.46,3.73-9.24,1.58.07,2,0,2.23.12q7,6,14,12.05c-1,10.17-.53,20.74-3.17,30.46q-13.35,49.1-28.69,97.63c-3.85,12.15-10.55,23.37-15.54,35.19-3.58,8.49-6.41,17.3-9.68,25.93a113.52,113.52,0,0,1-4.68,10.8c-4,7.93-2.86,12.94,4.08,18.45,3.59,2.85,6.76,6.23,10.71,9.92,2.29-2.55,4.07-4.88,6.18-6.85,8-7.49,15.55-15.59,24.29-22.1,12-9,25.52-7.38,36.33,2.73,5.63,5.26,7.31,12.09,4,18.94-1.86,3.85-4.06,7.9-7.14,10.72-9.81,9-19.36,18.51-31.91,23.69a67.27,67.27,0,0,1-16.13,4.16c-6.9,1-14.32,12.88-10.77,18.73,1,1.59,3.82,2.92,5.8,2.9,15.46-.12,30.31-2.13,43.48-11.73a75.65,75.65,0,0,0,25.26-31.55c3.35-7.68,5.53-15.74,2.67-24.17-4.83-14.21-15.7-20.87-29.77-23.21-6.89-1.14-13.86-1.76-20.76-2.89-2.07-.33-4-1.57-6.34-2.54,8.69-7.76,27.73-7.72,43.75,0,14.3,6.86,24.25,17.94,30.06,34.5,2.71-3.44,4.86-5.78,6.55-8.42,5-7.83,9.84-15.81,14.82-23.68,6.4-10.12,9.19-10.81,19.23-5,1.13.65,2.2,1.4,3.39,2.17,1.33,9.54-3.49,16.86-8.12,24.13-10.54,16.57-22.7,41.88-27.4,57.84,8.38-1.13,15.19-5.28,22-9,20.58-11.25,38.57-26,55.37-42.22,4-3.88,6.58-9.27,10.52-13.26a74.24,74.24,0,0,1,13.79-11c3.12-1.92,7.7-1.9,10.06,1.53,2.72,4,4.13,8.72,8.6,11.57.6.38-.31,5.39-1.82,6.51-15.35,11.45-22.81,27.33-26,45.53-.63,3.68.47,7.81,1.41,11.56,1,4.13,4.41,6.24,8.44,5.17,9.58-2.54,19.83-4.14,28.37-8.78,18.77-10.2,35.41-23.59,50.18-39.18,2.65-2.81,6.07-4.89,8.86-7.09,12.2,7.31,13.72,11.82,8.54,22.67,5.9-3.67,12.09-6.94,17.63-11.07,16.4-12.23,34.25-21.81,52.89-30a69.44,69.44,0,0,1,12.34-3.91c6.17-1.41,12.27-2.4,17-7.45,1.71-1.82,5.22-2,6.52-2.39,3.76,3.25,5.95,6.37,8.88,7.37,4.68,1.62,5,4,4.35,8.31-2.31,15.59-5.52,30.81-14.26,44.31a24.8,24.8,0,0,0-1.75,4.09l1.48,1.46c3.28-2.45,6.63-4.82,9.83-7.37,21.87-17.43,43.46-35.21,65.65-52.22,9.71-7.44,20.53-13.45,31-19.85a22.14,22.14,0,0,1,8.42-2.85c6-.77,8.08,1.47,8,7.77,0,3.64,0,3.64,6.38,10.34-5.41,9.37-10.47,19.45-16.76,28.69-7.46,10.95-15.07,21.66-21.54,33.34-3.7,6.68-9.26,12.54-12.82,19.69s-5.78,14.12-3.67,22.08c.4,1.48.06,3.17.06,4.78-8.57-.23-14.75-7-15.69-15.89-1.26-11.93,3.44-22.23,8.57-32.35,4.36-8.6,9.3-16.91,13.92-25.39,1.7-3.11,3.23-6.32,4.84-9.48-.48-.49-1-1-1.46-1.46-3.9,2.72-8,5.22-11.66,8.21-17.2,14-33.87,28.58-49.34,44.54-10.88,11.21-22.14,22.13-34,32.27-4.84,4.13-11.58,6.24-17.75,8.44-1.88.68-5.2-.83-7.08-2.32-7.94-6.31-9.39-15.31-5-25.17q11.61-26,22.81-52.17c1.92-4.48,3.14-9.26,5.22-15.53-3.43,1.11-5.24,1.45-6.8,2.25-23.23,11.83-44.34,26.86-64.09,43.71-13.34,11.38-25.64,24-38.68,35.73-4.14,3.72-9.16,6.48-13.83,9.59-2.48,1.65-5.29,2.86-7.58,4.73-6.3,5.14-6,4.94-12,.15-6.31-5-9.49-10.94-8.29-19.06a51.71,51.71,0,0,0,0-6.68,31.43,31.43,0,0,0-5.13,1c-6.51,2.54-12.9,5.41-19.46,7.8-13,4.71-24.36,1.53-32.64-9.56-3.55-4.75-6.23-10.2-8.91-15.52-4.22-8.37-6.43-8.56-12.73-1.9-11.41,12.06-25.93,19.36-40.79,26.34-15.35,7.22-29.12,8.24-41.18-5.84-1-1.15-2.77-1.6-3.27-1.87-7.55,5.11-14.28,9.78-21.12,14.28-14.69,9.66-31.52,10.1-48.14,10.06-4.82,0-10.51-3-14.25-6.4-5.59-5-10.93-11-14.38-17.67-5.81-11.18-2.94-22.9,2.45-33.48,2.75-5.39,2.07-9.2-.89-13.74a9.67,9.67,0,0,0-10.15-4.74c-4.44.54-7,3-8.71,7.11-1.57,3.85-4,7.39-6.09,11-.83,1.43-2.16,2.6-2.8,4.08-4.63,10.62-8.87,21.4-13.78,31.88-3.36,7.17-7.9,13.79-11.38,20.91-6.4,13.08-12.06,26.54-18.67,39.51-9.51,18.65-20.43,36.64-29.11,55.65-5.42,11.87-12.78,22.22-19.45,33.18-14.84,24.39-29.2,49-49.21,69.73-4.14,4.29-7.56,9.28-11.13,14.08-9.29,12.51-21.68,21.17-34.58,29.56-9.43,6.13-19.68,8-30.24,9-18.79,1.79-38.46-11.26-39.87-34.28-1.05-17,4.74-32.19,10.44-47.36a489.39,489.39,0,0,1,33-70.54c4-6.94,8.2-13.72,12.54-20.43,1-1.54,2.91-2.48,4.41-3.7q.12,4.2.23,8.38l2.11-.34c.06-2.81,3.26-6.37-2.64-7.77,4.32-12,11.56-21.95,21-30.51,2.38.69,4.73,1.42,6.32,1.93,4-4.15,7.68-7.79,11.18-11.57,2.41-2.61,2.84-5.13,0-6.49ZM2048.22,451c-9.52.56-15.22,4.77-21,8.45-13.68,8.73-27.23,17.68-40.72,26.72-13.79,9.25-26.81,19.36-36.65,33.09-2.26,3.17-5.4,6.58-8.88,7.84-7.81,2.82-11,9-14.16,15.66-2.85,6.11-6.31,11.61-12.78,14.8-2.14,1-4.46,3.53-4.94,5.74-1.18,5.46-5.48,7.92-8.78,11.52-3.11,3.39-5.11,7.77-7.75,11.6-.72,1-2.25,1.5-3,2.52-2.38,3.07-6.13,6.09-6.56,9.48-1.6,12.72-14.42,19.8-15.59,32.52,0,.52-.77,1.19-1.33,1.41-5.63,2.25-5.79,7.63-7.26,12.31a83.73,83.73,0,0,1-3.76,10.25c-3.19,6.89-6.79,13.58-9.94,20.48-2.18,4.8-3,10.48-6,14.62-9.08,12.52-8,27.9-12.57,41.66-2.2,6.64,2.17,10.53,9.4,10.5a26.74,26.74,0,0,0,5-.5c21-3.89,38.52-15.18,53.72-29.08,24.21-22.16,42.76-49.29,59.84-77.08,15-24.35,28.5-49.64,41.61-75.06,14.8-28.71,28.46-58,42.49-87.12C2041.85,466.56,2044.58,459.5,2048.22,451ZM1894.84,727.71l-1.32-1.83c-5.23,4.82-12.31,7.4-16.6,13.35l1.42,1.76Zm14.44-178.45c10.15-1.23,8.17-8.16,9.31-13.13C1915.91,539.91,1913.23,543.7,1909.28,549.26Zm15.77,140.13,2.17,2.3,4.54-5.31-1.21-1.16ZM2024,535.16l-2.2-2.36c-.67.67-1.67,1.23-1.91,2s.48,1.62.76,2.45Zm-67.81,115.32,1.86.41c.32-1.25.63-2.49,1-3.73l-1.42-.44C1957.09,648,1956.62,649.22,1956.16,650.48Zm82.48-149.71a6.74,6.74,0,0,0,.92-2.52c0-.4-1.3-.71-2-1.06a13.59,13.59,0,0,0-.65,2.68C2036.89,500.1,2037.85,500.38,2038.64,500.77Z" transform="translate(-364.87 -186.64)"/><path d="M1538.91,391.56c-3.21,2.13-6.68,3.95-9.6,6.42-23.67,20.09-45.36,42-63.65,67.28-6.29,8.69-14.82,16.13-23.47,22.62-7.94,6-18.4,1.11-21.09-8.63-2.36-8.53-3-16.9.09-25.75,7.34-20.84,17.63-40.27,29.46-58.64,23.73-36.83,48.52-73,73.3-109.14,14.59-21.3,30-42,45-63,3.17-4.45,5.79-9.29,8.77-13.88,1.91-3,4-5.77,5.75-8.23,1.94.41,2.75.38,3.32.73,15.36,9.46,14.38,9.38,8.56,26.66-6.2,18.4-16.83,34.42-28.18,49-23.35,30-42.1,63-64.4,93.67a734.63,734.63,0,0,0-45.29,70.83c-2,3.62-3.24,7.72-4.82,11.6l1.88,1.55c1.85-1.14,4-2,5.51-3.48,17.79-17.81,35.33-35.87,53.25-53.55,7.91-7.8,16.88-14.52,24.72-22.37,7.16-7.18,13.34-15.33,20.15-22.86,5.78-6.39,5.76-6.08,12.72-.84,2.44,1.85,5.8,2.48,9.59,4,1.45,4.61,1.13,9.73-1,15.05q-11.89,30.54-23.44,61.23c-1.73,4.61-2.73,9.5-4.42,15.52,9.88.93,18.09.44,25.75-3.09a143.54,143.54,0,0,0,19.16-10.6c24.72-16.42,46.92-35.9,67.64-57.07a28.58,28.58,0,0,0,5.72-9.18c4.11-10.13,7.69-20.47,11.74-30.62,1.19-3,2.68-6.36,5.06-8.26s6.92-3.55,8.63-2.43c5.21,3.43,10.75,7.51,13.82,12.72,3.45,5.86,1.26,12.73-2.35,18.7-2.83,4.69-5.13,9.7-8,14.38-11.17,18.38-15.08,39.37-21.64,59.42-6,18.29-12.54,36.41-18.66,54.67a77.09,77.09,0,0,0-3.68,14.75c-1.53,12.23-11.13,20.2-15.62,30.92-9,21.52-18.33,43-28.61,63.91-12.36,25.17-25.46,50-39,74.56-8.08,14.63-16.78,29.09-26.77,42.46-15.23,20.39-30.47,41.14-52.33,55.24-7.91,5.1-16.73,8.79-25.19,13-17.08,8.54-43.24-8.6-47.79-24.21a85.53,85.53,0,0,1-.56-46.59c9.21-34.09,24.22-65.47,46.85-93.18,16.47-20.17,33.94-39.24,53.68-56.11a256.81,256.81,0,0,1,48.83-32.55c17.46-9.09,35.54-15.91,53.84-22.58a15.75,15.75,0,0,0,10.2-10.62c7.27-22.92,14.67-45.81,21.95-68.73.29-.93-.11-2.08-.29-4.47A116.21,116.21,0,0,0,1634,438.64a176.06,176.06,0,0,1-39.19,29.2c-11.09,6.23-23,7.37-35,5.54-13.61-2.05-28.45-20.72-28.18-35.08a130.79,130.79,0,0,1,2.33-22.86c1.48-7.46,4.27-14.67,6.49-22ZM1615.27,534c-6.42-2.1-10.93-.52-14.92,2.06-13.68,8.84-27.85,16.7-41.09,26.52a309.13,309.13,0,0,0-40.67,36.34c-12.17,12.9-23.23,26.86-34.7,40.44a29.41,29.41,0,0,0-3.34,5.64c-7,13.58-14,27.13-20.81,40.8-2.43,4.88-5.19,9.9-6.14,15.16-1.92,10.71-6.82,19.72-12.74,28.6-4.45,6.67-4.34,14.68-2.61,22.19,1.63,7.1,6.75,10.08,14,8.72a66.7,66.7,0,0,0,14.58-4.42c14.24-6.25,26.14-15.83,36.92-26.93,21.29-21.92,37.69-47.48,53.16-73.47,21.67-36.41,39.12-75.06,56.28-113.77C1614.21,539.66,1614.49,537.11,1615.27,534ZM1506.37,742.9l-11.9,8.83,1.41,1.42Zm32.33-44.33,2.49,1.67,4.21-7.18-2-1.28Z" transform="translate(-364.87 -186.64)"/><path d="M681,311.54c-3.43,1.49-5.48,1.84-6.78,3-24.77,22.67-49.11,45.83-70.43,71.84-18.35,22.38-35.64,45.63-54.22,67.81-9.15,10.91-20,20.44-30.41,30.22-5,4.68-11.85,2.92-16.54-1.88-11.28-11.56-5.5-23.43-.94-34.95,6.87-17.33,15.92-33.58,25.57-49.59s17.6-32.74,26.32-49.16q13.35-25.12,26.72-50.22a53.4,53.4,0,0,0,2-5.52c-12.42,3.15-21.34,9.89-30.2,16.65a276,276,0,0,0-45.44,43.31,127.49,127.49,0,0,0-8.17,11.25c-9.48,14.4-19.1,28.73-28.17,43.39-3.77,6.09-6.06,13.07-13.29,16.39-1,.45-1,3-1.42,4.61-.5,1.92-.32,4.49-1.52,5.68-9.17,9.09-10.22,23.63-21.36,31.44-1.93,1.35-2.68,4.44-3.88,6.78-.59,1.17-.81,3.47-1.42,3.55-8.81,1.2-6.88,7.69-7.62,13.55-.51,4-3.19,7.91-5.53,11.45-5.11,7.73-10.78,15.08-15.92,22.79-3.87,5.81-7.36,11.88-10.83,17.93-1.88,3.3-3.75,6.28-8,6.61-3.89.3-5.8-1.78-7.86-4.85s-7.51-3.87-6.67-8.75a61.47,61.47,0,0,1,4.24-15c6.62-14.53,13.16-29.16,20.83-43.14,9.92-18.07,19.9-36.24,31.61-53.15,24.44-35.29,50.15-69.69,75.06-104.65,7.71-10.83,14.63-22.24,21.71-33.52,2.84-4.52,5-10.54,11.24-9.86s11.43,4.62,12.49,12.55c4.2-2.44,7.47-4.78,11.07-6.36,9.42-4.12,18.91-8.08,28.53-11.71,2.3-.87,5.92-1.23,7.66,0,5.06,3.52,9.09,8.44,15.2,10.61.82.29,1.62,2.38,1.43,3.45-1.17,6.49-1.49,13.45-4.23,19.26-5.16,11-11.95,21.16-17.63,31.91-1.25,2.37-.73,5.69-1,8.76-5.29,2.72-9.39,5.66-6.58,13.59,1,2.86-2.75,7.42-4.3,11.11l-5.06-.75c-11.38,23.47-22.43,46.29-36.16,68.25,1.39-.89,3.11-1.51,4.13-2.72C545.5,421.31,555.7,409,566,396.8c7.49-8.92,14.54-18.28,22.64-26.62,21.09-21.72,42.4-43.24,64.13-64.31,8.33-8.08,17.78-15.08,27.2-21.91,4.37-3.16,9.89-4.74,16.36-7.73-.25,10.28,6.2,12.09,13.12,13.85-.79,12.84-2,25.32-6.22,37.23-4.4,12.47-9,24.93-14.21,37.06-6.88,15.87-13.84,31.77-22,47-6.73,12.49-11.18,26.08-18.28,38.15-8.38,14.25-12.29,30.47-21.1,44.24-9.47,14.82-15.75,31.13-23.92,46.52-4.29,8.06-9.93,15.39-15,23-.54.83-1.54,1.53-1.71,2.41-3.29,17-15.16,30-21.55,45.61-5.34,13.07-13.79,24.93-21.27,37.07-4.67,7.57-9.78,7.53-15.82.72-2.1-2.37-4.39-4.58-7.63-7.93.94-3.46,1.47-8.16,3.44-12.15,3.39-6.84,7.82-13.16,11.56-19.83,13.66-24.39,27.78-48.55,40.69-73.33,21.36-41,42.55-82.08,62.58-123.72,13.83-28.79,25.63-58.55,38.2-87.93C678.7,320.68,679.42,316.81,681,311.54ZM575.7,556.25c4.27.25,5.44-3.13,6.93-6,1-2.05,1.68-4.34,2.86-6.3,4.25-7.07,8.8-13.95,13-21.07,4-6.88,6.39-15.27,11.84-20.6,6-5.89,4.58-16.22,13.31-19.83.51-.21.39-1.85.65-2.81,2.41-8.89,4.61-17.71,9-26.1,8.58-16.46,16.1-33.49,23.86-50.38,1.58-3.46,2.25-7.34,3.35-11a5.85,5.85,0,0,0-4.34,3.21Q642.86,422,629.72,448.79q-4.41,8.94-9,17.79c-10.64,20.69-21.43,41.3-31.92,62.07-4.61,9.12-8.63,18.53-12.89,27.85-2.41,3.15-5.29,6.06-7.14,9.51-9.6,17.85-19,35.82-28.33,53.79-2.06,4-3.86,8-5.77,12.07l2,1.06c3.91-5.6,8.29-10.94,11.65-16.85,7.38-13,14.67-26,21.13-39.47C572.48,570.3,578.32,564.45,575.7,556.25ZM630.28,337.4l2.19,2.3c2.92-2.7,7.21-4.11,8.64-10.84ZM649.4,320l2.18,2.21,5.2-5.57L655,314.88Zm14.73,58.73,1.47.66,2.61-5.55-1.6-.72Q665.37,375.93,664.13,378.73Zm-140.8,46.83,1.65.76,2.17-4.84-1.36-.6Z" transform="translate(-364.87 -186.64)"/><path d="M842.64,371.25l15.14,8c1.64,6.15.08,12.75-2.32,19.38a63.41,63.41,0,0,0-2.21,9.41c-1.4,7.1-2.27,14.34-4.17,21.31-2.44,9-5.49,17.77-8.63,26.52C837.88,463,834.8,470,831.93,477c-.62,1.51-1.79,2.94-1.93,4.48-1.59,16.95-8.85,31.85-16.5,46.64-1,1.94-1.2,4.3-1.9,6.42a56.24,56.24,0,0,1-2.74,7.31c-1.74,3.49-4.12,6.68-5.66,10.24C798,564.22,793,576.5,787.81,588.66c-.71,1.66-2.3,2.93-3.47,4.4-1,1.25-2.4,2.38-2.87,3.81-2.48,7.48-3.18,16.1-7.44,22.3-4.93,7.2-6.09,16.45-11.31,22.24s-7.26,11.84-9.5,18.82c-2.47,7.69-7.34,14.62-11.22,21.85-.93,1.73-2.45,3.21-3.09,5a169.43,169.43,0,0,1-18.67,38.19,37.46,37.46,0,0,0-4.67,11.64,40.45,40.45,0,0,1-10.75,18.82c-1.27,1.29-1.55,3.57-2.24,5.41-.94,2.49-1.37,5.31-2.83,7.43-11.58,16.86-23,33.89-35.27,50.23-5.26,7-12.36,12.63-19,18.43-3.59,3.13-7.67,2.89-11.83-.27-2.74-2.09-6.39-3-9.83-4.53-5.64-14.74-3.26-31.22,6.21-37,1.78,6.1,3.5,12,5.57,19.07a65.38,65.38,0,0,0,5.34-5.15c8.36-10.34,16.52-20.84,24.94-31.12,10.65-13,17.25-28.33,25-43,6.87-12.92,14.43-25.51,20.61-38.75,15.08-32.26,29.56-64.79,44.22-97.24,7.13-15.77,14.55-31.42,21.1-47.43,13-31.68,25.46-63.57,38-95.41a17.22,17.22,0,0,0,.7-10.3c-3,3.22-6,6.43-9,9.65s-5.85,6.35-8.79,9.51c-8.79,9.48-17.68,18.87-26.36,28.45-4.44,4.9-8.74,10-12.67,15.28-8.3,11.21-21.16,15.89-32.43,22.76-2.32,1.41-6.55.83-9.48-.12-19.91-6.47-21.6-21.73-19.56-34.83,4-25.51,14.66-48.19,29.31-69.18,3.61-5.19,7.16-10.43,11-15.47,4.9-6.46,6.15-6.73,13.38-3.63,3.35,1.44,6.58,3.14,9.89,4.72,1.86,4.51.52,8.43-1.75,12.33-8.86,15.21-17.84,30.35-26.36,45.75a199.32,199.32,0,0,0-9.83,21.6c-1.06,2.62-.9,5.74-1.44,9.7,2.78-.67,4.94-.57,6.17-1.58,11-9.08,22.42-17.84,32.74-27.7,18-17.24,36-34.65,52.81-53,10.63-11.6,21.81-23.43,24.52-40.28C838.23,376.83,841.05,374,842.64,371.25ZM703.43,729.83l18.85-19.71c-.67-9.25,0-8.89,4.39-16.81,6.16-11,16.31-20.29,16-34.45,0-2.08,1.78-4.23,2.86-6.28,7-13.36,14-26.71,21.33-40.57l-5.54-4.09c-3.43,7.71-6.49,14.61-9.56,21.5-2.26,5.09-4.63,10.13-6.73,15.29-2.37,5.82-3.11,12.95-7,17.38-7.73,8.84-8.8,20.46-15,30-7.72,11.87-13.1,25.25-19.43,38.07-2.51,4.48-6.12,8.54-6.36,15.48C702.06,740.31,705.39,736,703.43,729.83ZM682.23,774l-2.43-1.64L673.35,782l1.9,1.33ZM780.17,562.8c.29,5.77,2,5.89,5.52,3.47Zm23-26.95c1.32,1,2.1,2,2.65,1.9a2.91,2.91,0,0,0,1.84-1.86c.14-.59-.72-1.42-1.14-2.15Z" transform="translate(-364.87 -186.64)"/><path d="M1231.88,401.83c-.28,9.65-7.29,13.68-12.13,18.8-15.06,15.95-33.38,28.05-51.37,40.24-21,14.24-43,27-64.68,40.26-4.33,2.63-9.21,4.34-13.79,6.58-3.26,1.59-7.27,2.62-9.49,5.18-6.69,7.69-15.49,10.18-24.82,12.31-3.3.75-6.44,2.89-9.28,4.92-6.55,4.71-14.44,2.87-16.63-4.61-3.25-11.09-4.66-22.17,3.32-32.28a33.62,33.62,0,0,0,4.18-7.69c16.91-39.52,40-75.46,64.1-110.83q30.21-44.37,60.41-88.75c1.6-2.35,3-4.83,4.6-7.35-11.22-3.43-24.2.79-29.12,9.69-2.38,4.29-5.51,5.38-9.91,4.77-9.56-1.32-18.66-12.82-17-22.31.43-2.47,2.61-5,4.67-6.74,9.64-7.95,21.47-11.5,33.35-12.73a437.35,437.35,0,0,1,54.64-2.31c29.1.66,53,13.52,70.49,36.44,5.38,7.07,8,17.53,8.58,26.66a87.69,87.69,0,0,1-3.85,32.24c-2.67,8.27-9.44,15.27-14.61,22.68q-10.14,14.52-20.67,28.76C1240.33,399.18,1238.17,403.61,1231.88,401.83Zm-94.44,53.35c3.23-2,5.47-3.17,7.56-4.6,32.34-22.08,62.88-46,87.42-77.16,13.76-17.48,25.21-35.57,30.07-57.45,2.56-11.55,2.44-21.35-8.21-30.21-14.47-12.06-41.25-16.9-57-6.78-6.54,4.2-12,10.61-16.8,16.88-8.42,11-16.06,22.54-23.85,34-8,11.7-15.7,23.53-23.52,35.32-2.22,3.34-4.24,6.82-6.55,10.1-8,11.34-16.46,22.32-23.89,34-10.75,16.88-20.82,34.19-31,51.41-2.46,4.16-5.34,8.47-3.24,15.27,5.41-3.11,10.22-5.57,14.71-8.5,9.43-6.16,18.64-12.65,28.06-18.82,1.72-1.12,4.94-2.57,5.88-1.84,4.54,3.55,8.11.58,12.19-.65C1135.57,444.22,1137.55,446.27,1137.44,455.18ZM1217,411c-7.61,3.25-7.78,3.44-10.23,11.07C1213.73,421.45,1213.83,421.34,1217,411Zm-133.48,82.45,1.17,2.24,11.16-5.72-1.28-2.43ZM1111,479.67l1.46,2.07,5.24-4.15c-.4-.51-.79-1-1.19-1.52Zm23.82-6.67c.34.69.67,1.39,1,2.08l5.1-3.76L1140,470Zm63.63-39.73a12.41,12.41,0,0,0-2.33-2.37c-.31-.16-1.63.61-1.63,1a8.8,8.8,0,0,0,.77,2.64Z" transform="translate(-364.87 -186.64)"/><path d="M3012.71,211.2c.08,7.64-2.2,14.28-5.84,21-4.11,7.53-6.71,15.86-10.46,23.6-6.64,13.68-13.85,27.08-20.44,40.78-4,8.31-7.23,17-10.87,25.46-4.84,11.27-9.58,22.58-14.65,33.74-4.26,9.39-9.52,18.35-13.25,27.92-4.91,12.57-8.81,25.54-13,38.38-3.94,12-8.56,23.76-11.4,36-3.5,15.09-8.91,29.75-9.86,45.48-.52,8.55-2.85,17-4.56,25.46-.89,4.41-4,6.85-8.32,7.52s-7.27-1.89-8.73-5.34c-3.46-8.22-6.8-16.27-4.09-25.93,3-10.82,4.09-22.18,6.57-33.17,1.68-7.43,4.44-14.61,6.51-22q13.95-49.47,32.19-97.51c5.09-13.34,9.35-27.18,16.12-39.64,7.5-13.82,12.59-28.5,18.76-42.78,10.82-25,21.38-50.11,32.2-75.11,2.06-4.77,5.51-8.43,11.28-8.39,4.49,0,8.36,3.55,9.89,9.8C3011.9,201.24,3012.09,206.27,3012.71,211.2Z" transform="translate(-364.87 -186.64)"/><path d="M1295.08,444.55c-7.21,6.76-13.7,12.39-19.67,18.53-8.44,8.67-16.86,17.18-28.3,22.07-8.89,3.79-17.14,4.47-26.14-.38-5.92-3.18-8.62-7.31-9.39-13.55-1.75-14.15,4.39-26,12.49-36.29,15.58-19.75,32-38.93,53.23-53.12,6.63-4.43,13.06-9.19,19.4-14,13.41-10.25,29-8.2,44.27-8.17,8,6,17.75,9.78,24.68,21.16-1.81,1-3.88,2.86-6.22,3.31-6.32,1.22-8.68,5.88-11.06,10.95-8.82,18.81-18.19,37.38-26.51,56.41-4.06,9.28-6.69,19.27-9.13,29.15-1.15,4.62-2.08,9.81,4.44,13.06,3.56,1.77,3.85,6.79,1.64,10.71-3.07,5.45-8.69,8.42-13.69,6.49-7.39-2.85-14.07-7.54-14.72-16a174.62,174.62,0,0,1,.66-28.27C1291.68,459.47,1293.58,452.49,1295.08,444.55Zm-44.07,4c16.33-11,50.11-44.56,55.08-54.9C1284,410.45,1264.46,426.42,1251,448.53Z" transform="translate(-364.87 -186.64)"/><path d="M2789.24,437.89c-5.21,12-13.9,23.25-12.86,37.43,3.89,3.74,7.84,2.79,11.49,1.07,7.8-3.69,15.65-7.37,23.06-11.75,5.91-3.49,11.81-2.9,19-2.78-4.15,9.54-8.71,17.31-16.72,22.47-10.87,7-21.44,14.39-34.94,16.17-6.07.8-10.78-.2-14.17-4.74a91,91,0,0,1-8.38-14.54c-1.69-3.46-2.59-7.3-3.87-11-9.53,7.5-18.49,14.18-27,21.36-10.83,9.12-23.3,14.48-37.23,15-12,.43-24.11-.29-31.84-12.26-4-6.2-6-12.76-5-19.88,2.19-15.36,8.77-28.38,21.5-37.94,17.54-13.18,36.84-22.38,58.37-26.89,13.8-2.88,27.38-1.89,40.07,3.83,6.41,2.89,12.58,7.29,13.65,15.86C2784.63,432.15,2787.36,434.76,2789.24,437.89Zm-27.83-6.71c-5.5-.62-9.09-1.77-12.41-1.25-9.5,1.48-19.07,3-28.28,5.67-20.86,6-34.69,21-46.29,38.33-2.43,3.62-.77,6.46,3.84,6.6a40.37,40.37,0,0,0,11.78-1.35c18.6-5.13,34.34-15.69,49.52-27.09C2746.92,446.58,2754.3,441,2761.41,431.18Z" transform="translate(-364.87 -186.64)"/><path d="M1441.68,324.78c2.34,1.53,4.2,2.66,6,3.92,7.61,5.36,6.9,5.75,5.74,15.24-.92,7.63-5,11.8-9.9,17-7.16,7.52-12.31,16.94-18.35,25.53-5,7.11-10.35,14-15,21.34a174.63,174.63,0,0,0-10.77,19.86c-6.56,14.18-11.86,29-22.54,40.93-1.79,2-2.13,5.34-3.1,8.07-1.42,4-2.8,8.06-4.15,11.95-11.18-2.37-15.71-8.73-13.54-19.77,1.69-8.54,4.56-16.88,7.3-25.18,7.75-23.45,21.67-43.7,34.19-64.62,8.41-14.05,17.92-27.43,26.67-41.28C1428.32,331.24,1433.47,326.57,1441.68,324.78Z" transform="translate(-364.87 -186.64)"/><path d="M1504.47,228.76c-13.15-.63-17.27-4.75-18-15.6-.34-4.86,2.93-8.44,7.13-6.36,6.31,3.12,11.94,7.72,17.47,12.17,1,.81,1,4.82,0,5.77C1508.72,227,1505.46,228.19,1504.47,228.76Z" transform="translate(-364.87 -186.64)"/><path d="M2840.08,613.56l-3.11,4.51-2.65-2.15,3.94-3.89Z" transform="translate(-364.87 -186.64)"/><path class="cls-1" d="M2048.22,451c-3.64,8.47-6.37,15.53-9.64,22.33-14,29.11-27.69,58.41-42.49,87.12-13.11,25.42-26.65,50.71-41.61,75.06-17.08,27.79-35.63,54.92-59.84,77.08-15.2,13.9-32.69,25.19-53.72,29.08a26.74,26.74,0,0,1-5,.5c-7.23,0-11.6-3.86-9.4-10.5,4.55-13.76,3.49-29.14,12.57-41.66,3-4.14,3.79-9.82,6-14.62,3.15-6.9,6.75-13.59,9.94-20.48a83.73,83.73,0,0,0,3.76-10.25c1.47-4.68,1.63-10.06,7.26-12.31.56-.22,1.29-.89,1.33-1.41,1.17-12.72,14-19.8,15.59-32.52.43-3.39,4.18-6.41,6.56-9.48.78-1,2.31-1.48,3-2.52,2.64-3.83,4.64-8.21,7.75-11.6,3.3-3.6,7.6-6.06,8.78-11.52.48-2.21,2.8-4.7,4.94-5.74,6.47-3.19,9.93-8.69,12.78-14.8,3.12-6.68,6.35-12.84,14.16-15.66,3.48-1.26,6.62-4.67,8.88-7.84,9.84-13.73,22.86-23.84,36.65-33.09,13.49-9,27-18,40.72-26.72C2033,455.8,2038.7,451.59,2048.22,451Z" transform="translate(-364.87 -186.64)"/><path class="cls-1" d="M1888.91,568.67l17.49-16.28c2.89,1.36,2.46,3.88,0,6.49-3.5,3.78-7.16,7.42-11.18,11.57-1.59-.51-3.94-1.24-6.32-1.93A.41.41,0,0,0,1888.91,568.67Z" transform="translate(-364.87 -186.64)"/><path class="cls-1" d="M1894.84,739.71,1878.34,753l-1.42-1.76c4.29-6,11.37-8.53,16.6-13.35Z" transform="translate(-364.87 -186.64)"/><path class="cls-1" d="M1909.28,561.26c4-5.56,6.63-9.35,9.31-13.13C1917.45,553.1,1919.43,560,1909.28,561.26Z" transform="translate(-364.87 -186.64)"/><path class="cls-1" d="M1925.05,701.39l5.5-4.17,1.21,1.16-4.54,5.31Z" transform="translate(-364.87 -186.64)"/><path class="cls-1" d="M2024,535.16l-3.35,2.12c-.28-.83-1-1.77-.76-2.45s1.24-1.36,1.91-2Z" transform="translate(-364.87 -186.64)"/><path class="cls-1" d="M1868,599c5.9,1.4,2.7,5,2.64,7.77l-2.11.34q-.1-4.18-.23-8.38Z" transform="translate(-364.87 -186.64)"/><path class="cls-1" d="M1956.16,650.48c.46-1.26.93-2.51,1.39-3.76l1.42.44c-.32,1.24-.63,2.48-1,3.73Z" transform="translate(-364.87 -186.64)"/><path class="cls-1" d="M2038.64,500.77c-.79-.39-1.75-.67-1.74-.9a13.59,13.59,0,0,1,.65-2.68c.71.35,2,.66,2,1.06A6.74,6.74,0,0,1,2038.64,500.77Z" transform="translate(-364.87 -186.64)"/><path class="cls-1" d="M1615.27,534c-.78,3.1-1.06,5.65-2,7.88-17.16,38.71-34.61,77.36-56.28,113.77-15.47,26-31.87,51.55-53.16,73.47-10.78,11.1-22.68,20.68-36.92,26.93a66.7,66.7,0,0,1-14.58,4.42c-7.29,1.36-12.41-1.62-14-8.72-1.73-7.51-1.84-15.52,2.61-22.19,5.92-8.88,10.82-17.89,12.74-28.6,1-5.26,3.71-10.28,6.14-15.16,6.8-13.67,13.84-27.22,20.81-40.8a29.41,29.41,0,0,1,3.34-5.64c11.47-13.58,22.53-27.54,34.7-40.44a309.13,309.13,0,0,1,40.67-36.34c13.24-9.82,27.41-17.68,41.09-26.52C1604.34,533.49,1608.85,531.91,1615.27,534Z" transform="translate(-364.87 -186.64)"/><path class="cls-1" d="M1506.37,742.9l-10.49,10.25-1.41-1.42Z" transform="translate(-364.87 -186.64)"/><path class="cls-1" d="M1538.7,698.57l4.71-6.79,2,1.28-4.21,7.18Z" transform="translate(-364.87 -186.64)"/><path class="cls-1" d="M575.91,556.47c4.29-9.29,8.31-18.7,12.92-27.82,10.49-20.77,21.28-41.38,31.92-62.07q4.54-8.86,9-17.79,13.2-26.73,26.37-53.49a5.85,5.85,0,0,1,4.34-3.21c-1.1,3.69-1.77,7.57-3.35,11C649.32,420,641.8,437,633.22,453.5c-4.37,8.39-6.57,17.21-9,26.1-.26,1-.14,2.6-.65,2.81-8.73,3.61-7.27,13.94-13.31,19.83-5.45,5.33-7.82,13.72-11.84,20.6-4.15,7.12-8.7,14-13,21.07-1.18,2-1.81,4.25-2.86,6.3-1.49,2.91-2.66,6.29-6.93,6Z" transform="translate(-364.87 -186.64)"/><path class="cls-1" d="M575.7,556.25c2.62,8.2-3.22,14-6.25,20.36-6.46,13.44-13.75,26.5-21.13,39.47-3.36,5.91-7.74,11.25-11.65,16.85l-2-1.06c1.91-4,3.71-8.12,5.77-12.07,9.37-18,18.73-35.94,28.33-53.79,1.85-3.45,4.73-6.36,7.12-9.53Z" transform="translate(-364.87 -186.64)"/><path class="cls-1" d="M630.28,337.4l10.83-8.54c-1.43,6.73-5.72,8.14-8.64,10.84Z" transform="translate(-364.87 -186.64)"/><path class="cls-1" d="M649.4,320l5.63-5.12,1.75,1.76-5.2,5.57Z" transform="translate(-364.87 -186.64)"/><path class="cls-1" d="M664.13,378.73q1.23-2.81,2.48-5.61l1.6.72-2.61,5.55Z" transform="translate(-364.87 -186.64)"/><path class="cls-1" d="M523.33,425.56l2.46-4.68,1.36.6L525,426.32Z" transform="translate(-364.87 -186.64)"/><path class="cls-1" d="M703.59,730c6.39-12.73,11.77-26.11,19.49-38,6.19-9.51,7.26-21.13,15-30,3.87-4.43,4.61-11.56,7-17.38,2.1-5.16,4.47-10.2,6.73-15.29,3.07-6.89,6.13-13.79,9.56-21.5l5.54,4.09c-7.29,13.86-14.33,27.21-21.33,40.57-1.08,2-2.9,4.2-2.86,6.28.29,14.16-9.86,23.42-16,34.45-4.43,7.92-5.06,7.56-4.39,16.81l-18.85,19.71Z" transform="translate(-364.87 -186.64)"/><path class="cls-1" d="M703.43,729.83c2,6.21-1.37,10.48-6.14,15.78.24-6.94,3.85-11,6.33-15.52Z" transform="translate(-364.87 -186.64)"/><path class="cls-1" d="M682.23,774l-7,9.34-1.9-1.33,6.45-9.65Z" transform="translate(-364.87 -186.64)"/><path class="cls-1" d="M780.17,562.8l5.52,3.47C782.18,568.69,780.46,568.57,780.17,562.8Z" transform="translate(-364.87 -186.64)"/><path class="cls-1" d="M803.19,535.85l3.35-2.11c.42.73,1.28,1.56,1.14,2.15a2.91,2.91,0,0,1-1.84,1.86C805.29,537.86,804.51,536.84,803.19,535.85Z" transform="translate(-364.87 -186.64)"/><path class="cls-1" d="M1137.44,455.18c.11-8.91-1.87-11-8.18-9.07-4.08,1.23-7.65,4.2-12.19.65-.94-.73-4.16.72-5.88,1.84-9.42,6.17-18.63,12.66-28.06,18.82-4.49,2.93-9.3,5.39-14.71,8.5-2.1-6.8.78-11.11,3.24-15.27,10.19-17.22,20.26-34.53,31-51.41,7.43-11.66,15.94-22.64,23.89-34,2.31-3.28,4.33-6.76,6.55-10.1,7.82-11.79,15.57-23.62,23.52-35.32,7.79-11.44,15.43-23,23.85-34,4.81-6.27,10.26-12.68,16.8-16.88,15.75-10.12,42.53-5.28,57,6.78,10.65,8.86,10.77,18.66,8.21,30.21-4.86,21.88-16.31,40-30.07,57.45-24.54,31.15-55.08,55.08-87.42,77.16C1142.91,452,1140.67,453.22,1137.44,455.18Z" transform="translate(-364.87 -186.64)"/><path class="cls-1" d="M1217,411c-3.18,10.35-3.28,10.46-10.23,11.07C1209.23,414.43,1209.4,414.24,1217,411Z" transform="translate(-364.87 -186.64)"/><path class="cls-1" d="M1083.53,493.44l11-5.91,1.28,2.43-11.16,5.72Z" transform="translate(-364.87 -186.64)"/><path class="cls-1" d="M1111,479.67l5.51-3.6c.4.5.79,1,1.19,1.52l-5.24,4.15Z" transform="translate(-364.87 -186.64)"/><path class="cls-1" d="M1134.81,473l5.2-3,.91,1.31-5.1,3.76C1135.48,474.39,1135.15,473.69,1134.81,473Z" transform="translate(-364.87 -186.64)"/><path class="cls-1" d="M1198.44,433.27l-3.19,1.24a8.8,8.8,0,0,1-.77-2.64c0-.36,1.32-1.13,1.63-1A12.41,12.41,0,0,1,1198.44,433.27Z" transform="translate(-364.87 -186.64)"/><path class="cls-1" d="M1251,448.53c13.45-22.11,33-38.08,55.08-54.9C1301.12,404,1267.34,437.5,1251,448.53Z" transform="translate(-364.87 -186.64)"/><path class="cls-1" d="M2761.41,431.18c-7.11,9.8-14.49,15.4-21.84,20.91-15.18,11.4-30.92,22-49.52,27.09a40.37,40.37,0,0,1-11.78,1.35c-4.61-.14-6.27-3-3.84-6.6,11.6-17.34,25.43-32.32,46.29-38.33,9.21-2.65,18.78-4.19,28.28-5.67C2752.32,429.41,2755.91,430.56,2761.41,431.18Z" transform="translate(-364.87 -186.64)"/></svg>