<svg id="Layer_1" data-name="Layer 1" xmlns="http://www.w3.org/2000/svg" viewBox="0 0 700 117.36"><defs><style>.cls-1{fill:#fff;}</style></defs><path class="cls-1" d="M647.67,62.26c1-.42,2.11-.78,3.13-1.25a79.17,79.17,0,0,0,18.53-11.52,33,33,0,0,0,7.22-8c1.12-1.9,2.18-3.85,3.37-5.71a3.14,3.14,0,0,1,5.27.18c.91,1.77.82,2.61-.15,4.07a73.22,73.22,0,0,0-3.78,6.55c-2.21,4.2-4.33,8.44-6.49,12.67-.65,1.27-1.27,2.56-2,4.1a8.75,8.75,0,0,0,1.91.19c3-.45,6.06-1,9.11-1.42a13,13,0,0,1,4.34-.11,8.74,8.74,0,0,1,3.27,2c.26.21.17,1.22-.11,1.62a2.94,2.94,0,0,1-1.64,1.13,25.08,25.08,0,0,1-6.09.91,29.34,29.34,0,0,0-8.62,1.2c-1.69.43-3.4.82-5,1.36a3.09,3.09,0,0,0-1.57,1.2c-1.66,2.75-3.15,5.59-4.84,8.33-1.14,1.85-2.48,3.59-3.77,5.35-1.12,1.55-2.29,3.06-3.46,4.58-.89,1.15-1.82,2.26-2.7,3.42a79.94,79.94,0,0,1-10.08,11,60.82,60.82,0,0,1-13.53,9.53,27.28,27.28,0,0,1-12.8,3.26,11.25,11.25,0,0,1-6.23-2.13,4.54,4.54,0,0,1-1.48-2,16,16,0,0,1,1.28-14.73,39.32,39.32,0,0,1,2.39-3.89c1.14-1.52,2.56-2.83,3.68-4.37,2.73-3.73,6.66-6,10.31-8.57A81.41,81.41,0,0,1,644,72.44a124.76,124.76,0,0,1,18.86-6,2.64,2.64,0,0,0,1.84-1.57c.86-1.71,1.69-3.44,2.57-5.15.56-1.08,1.19-2.13,2-3.52a10.83,10.83,0,0,0-1.26.61c-2.08,1.42-4.17,2.84-6.22,4.31-1.8,1.27-3.53,2.64-5.34,3.9a33.72,33.72,0,0,1-12,5.12c-1.82.41-4.29-2-4.31-4.17a14.48,14.48,0,0,1,1.48-7.36,63.74,63.74,0,0,0,3-7.17,4.28,4.28,0,0,0,.08-1.06,4.77,4.77,0,0,0-1.41.38c-3.46,2.46-7.59,3.88-10.67,6.93a24.52,24.52,0,0,1-2.84,2.34c-3.24,2.35-5.85,5.37-8.63,8.21-2,2.09-4.25,1.71-5.35-1-.82-2-.12-3.75.91-5.44,2.11-3.48,4.26-6.93,6.33-10.43.68-1.16,1.18-2.44,1.8-3.75a31.77,31.77,0,0,0-9.59,3.55c-1.63,1-2.76,2.82-4,4.37-2.43,3.07-4.74,6.24-7.18,9.3-1.53,1.91-3.21,3.7-4.83,5.54-1.06,1.2-2.56,1.62-3.45,1a4.93,4.93,0,0,1-1.33-4.83,5.88,5.88,0,0,1,.9-1.33c2.17-2.59,4.33-5.18,6.55-7.72,1.56-1.77,1.89-2.21,2.28-4a7,7,0,0,0-1.54-.23c-2.21.2-3.6-1.58-5.45-2.23-.17,0-.29-.35-.35-.56-.59-2.25,2-5.07,4.21-4.36a15.89,15.89,0,0,0,8.41-.06A4.07,4.07,0,0,0,612,44.36c2.91-3.93,5.28-8.27,8.86-11.7,1.28-1.23,2.5-2.5,4.44-2.72,2.75,1.78,2.92,3.58.53,6.08-1,1-2,2.07-3,3.16A16,16,0,0,0,621.54,41l.31.49c.84-.16,1.7-.28,2.54-.5,1.91-.5,3.73-1.41,5.83-1a2.82,2.82,0,0,1,2.36,2c.93,2.16.24,3.8-.65,5.59-.5,1-.89,2.05-1.51,3.51,2.16-1.23,3.9-2.09,5.51-3.17a41.08,41.08,0,0,1,12.71-5.18,3.78,3.78,0,0,1,4.09,1.52,3.13,3.13,0,0,1-.18,3.88A11.77,11.77,0,0,0,650,55c-.1,1.74-1.3,3.41-2,5.11-.23.56-.44,1.12-.65,1.68Zm12.27,11.18a4.88,4.88,0,0,0-1.39-.32c-2.49.32-4.52,2.2-7.14,2.15,0,0-.11.11-.18.14-.81.41-1.61.86-2.44,1.21-4.8,2-9.62,4-13.65,7.38a4.64,4.64,0,0,1-.94.65,17,17,0,0,0-5.51,4,24.06,24.06,0,0,1-3.18,2.95c-2.89,2.33-5,5.4-7.36,8.16a1.78,1.78,0,0,0-.47,1,3.48,3.48,0,0,1-1.8,2.77,5.17,5.17,0,0,0-2.09,3.7c-.21,1.66.15,2.19,1.75,2.73a10,10,0,0,0,5.66,0,33.37,33.37,0,0,0,10.14-4.22c2.07-1.29,3.88-3,6-4.27,3.07-1.87,5.28-4.65,7.8-7.07a54.59,54.59,0,0,0,5.68-6.89c1.78-2.39,3.35-4.92,5-7.39.51-.76,1-1.52,1.51-2.3C658.16,76.47,659,75.05,659.94,73.44Z"/><path class="cls-1" d="M261.84,42.61c-1.3,1-2.59,2-3.91,3-1.67,1.22-3.38,2.39-5.05,3.6-.5.36-1,.76-1.42,1.15a15.85,15.85,0,0,1-1.41,1.19c-3.66,2.35-7.36,4.66-11,7-1.67,1.08-3.14,2.53-4.92,3.33a98.59,98.59,0,0,1-10.33,3.88,4.3,4.3,0,0,1-5.64-4.08c0-.93.27-1.52,1.19-1.64,4.83-.65,9-3.07,13.24-5.16,2.39-1.17,4.63-2.66,6.94-4,2.65-1.55,5.34-3,7.92-4.67q5.9-3.77,11.66-7.74c1.57-1.08,3-2.44,4.5-3.55A13.69,13.69,0,0,0,268,29.71c1.23-2.45,2.86-2.72,5.08-1.16a2.14,2.14,0,0,1,.8,3.15c-.52.94-1.17,1.8-1.77,2.69s-1.56,1.89-1.6,3.42c0,1.12-1.27,2.16-1.73,3.34-.79,2-1.35,4.05-2.09,6.05a14.3,14.3,0,0,1-1.25,2.12c.42.15.8.44,1.15.39.9-.12,1.79-.4,2.69-.58,2.56-.52,4.67-1.54,6.05-4,1.59-2.87,4.27-4.78,6.93-6.64,2.13-1.49,4.35-1.22,6.53-.09s2.49,2.18,1.63,4.33a8.81,8.81,0,0,1-4.72,4.8,79,79,0,0,0-7.45,3.8c-.76.46-1,1.72-1.6,2.71a6.85,6.85,0,0,0,5.35.88,34.58,34.58,0,0,0,13.44-6.29,10.22,10.22,0,0,0,2.82-4,5.34,5.34,0,0,1-1.35-.53,10.16,10.16,0,0,1-2.05-2,2.55,2.55,0,0,1,0-2.86c.66-1,1.68-.44,2.54-.32,2.5.33,4.07,2.23,5.4,4,1,1.35.32,3.3-.61,4.76a23.24,23.24,0,0,1-9,8.29A39.45,39.45,0,0,1,288,58.06a39.5,39.5,0,0,1-6.16,1.82c-2.84.5-5.73.47-7.95-1.83a10.07,10.07,0,0,1-1.35-2.33c-.37-.73-.7-1.49-1.17-2.52A46.65,46.65,0,0,1,265.88,55c-2.5.49-3.67,2-4.58,4.24-1.31,3.26-2.93,6.41-4.5,9.57-1.76,3.57-3.48,7.16-5.45,10.62a97.3,97.3,0,0,1-5.5,8.47q-4,5.58-8.25,11a22.51,22.51,0,0,1-3.93,3.81c-3.89,3-7.8,6-12.71,7.17a8.19,8.19,0,0,1-8.46-3.71A10.73,10.73,0,0,1,211,99.75c0-4,.28-8,2-11.71a82.5,82.5,0,0,1,4.92-9.36c4.39-6.84,10.44-12.07,17.23-16.38a74.18,74.18,0,0,1,17.05-8,53.88,53.88,0,0,0,5.62-1.92,3.85,3.85,0,0,0,1.7-2c1-2.44,1.81-5,2.7-7.45ZM256.3,58.73a7.55,7.55,0,0,0-1.73.1c-2.51.89-5,1.73-7.5,2.77a59.55,59.55,0,0,0-15.43,9.52c-4.22,3.59-8.06,7.51-10.74,12.48-.84,1.56-1.4,3.23-2.24,4.73a20.67,20.67,0,0,0-2.41,5.92c-.55,2.68-1.53,5.31-.85,8.12a3.24,3.24,0,0,0,3.89,2.63,16.52,16.52,0,0,0,3.71-1.24c5.11-2.53,9.11-6.43,12.83-10.66,1.1-1.25,2.19-2.52,3.18-3.87,1.23-1.66,2.18-3.55,3.54-5.09,3-3.44,4.52-7.8,7-11.59a85.29,85.29,0,0,0,4.4-8.63C254.7,62.31,255.41,60.66,256.3,58.73Zm27.91-15.66.21.38,1.23-.84-.19-.28Z"/><path class="cls-1" d="M553.74,56.2c-2.81,1.68-5.58,3.43-8.44,5a77.39,77.39,0,0,1-10.38,5.4,25.63,25.63,0,0,0-3.11,1.87,10.38,10.38,0,0,1-2.31,1c-2.22.6-4.44,1.25-6.7,1.63a5.4,5.4,0,0,1-6-2.92,16.69,16.69,0,0,1-1.68-4c-.25-1-1.81-1.86-3-2.41A6.27,6.27,0,0,1,508.44,57a1.81,1.81,0,0,1,.05-.69c0-.14.14-.26.37-.67a15.91,15.91,0,0,1,2.73,1.31c1.55,1.1,3.19.23,4.76.35.43,0,1-.85,1.37-1.42,2.85-4.69,7.07-7.75,11.81-10.3A22.11,22.11,0,0,1,538,42.76c3.82-.35,5.64,1.54,6.2,4.94.27,1.6-.88,2.71-1.84,3.79-3.84,4.33-8.75,6.89-14.2,8.55-2.12.65-4.23,1.36-6.35,2a2.21,2.21,0,0,0-1.73,2.74c.13.45.82,1.09,1.22,1.06a14,14,0,0,0,4-.69c3.67-1.36,7.29-2.84,10.88-4.37,1.75-.74,3.42-1.7,5.11-2.59a17.26,17.26,0,0,1,2-1.14c4.38-1.54,8-4.4,12.1-6.52a43.54,43.54,0,0,0,8.19-5.45,2.2,2.2,0,0,1,2.76-.23,3.67,3.67,0,0,1,1.85,2.75c0,.35-.35.81-.63,1.15-.71.85-1.47,1.66-2.21,2.49l.26.38c.64-.32,1.29-.63,1.93-1l13.52-7.31a16.5,16.5,0,0,1,7.58-1.63A4.87,4.87,0,0,1,592,43.09c1.49,1.61,3.33,3.17,2.45,6a10.1,10.1,0,0,1-1.58,3.43c-2.52,3.19-4.79,6.57-7.32,9.75a47.87,47.87,0,0,1-4.39,4.39c-.76.75-1.6,1.42-2.35,2.18-1.33,1.32-3,1.62-4.11.69a3.73,3.73,0,0,1-.73-4.59c1-1.37,2.13-2.61,3.22-3.9.2-.23.44-.58.68-.6a3.35,3.35,0,0,0,2.61-1.56c2.82-3.89,6.76-7,8.4-11.72,0-.06,0-.15-.08-.39a9.71,9.71,0,0,0-6,1.39c-3.82,2-7.61,4-11.26,6.26-2.92,1.8-5.62,4-8.39,6a5.57,5.57,0,0,0-1,1.24,6.18,6.18,0,0,1-1,1.27c-3.05,2.29-6.1,4.61-9.25,6.77-1.83,1.27-3.84.3-4.19-1.9a4.44,4.44,0,0,1,.77-3.72c1.34-1.67,2.71-3.33,4-5,.6-.78,1.09-1.64,1.63-2.46ZM525,55c5.56-1.56,10.21-3.76,13.78-7.82C533.75,48.75,529.05,50.87,525,55Z"/><path class="cls-1" d="M98.5,68.59a9.81,9.81,0,0,1-3.39-8.47c.18-1.9.28-3.82.43-5.73a3.42,3.42,0,0,1,.2-1.12c1.54-3.25,3.06-6.52,4.7-9.72a13.6,13.6,0,0,1,2.29-3.14,2.24,2.24,0,0,1,3.31-.08,2.72,2.72,0,0,1,.89,3.44c-.53,1-1.19,2-1.64,3s-.67,2.17-1.05,3.24c-.68,2-1.42,3.89-2.09,5.84-.33,1-1,1.91-.24,3.29.89-.8,1.73-1.43,2.43-2.2,1.85-2,3.62-4.17,5.47-6.22,2.29-2.57,4.63-5.09,7-7.63.82-.91,1.68-1.79,2.45-2.74a1.76,1.76,0,0,1,2.22-.72A13.93,13.93,0,0,1,124.5,42a1.76,1.76,0,0,1,0,1.62c-1.2,2.4-1.14,5-1.48,7.58-.14,1.07,1,1.5,2,1.42,1.91-.15,3.8-.43,5.7-.67.08,0,.15,0,.23-.06,2.88-.4,4.68-1.81,5.28-4.85s2.68-5.33,4.5-7.69c1.44-1.88,3.17-3.53,4.79-5.28,2.12-2.29,4.8-2.59,7.64-2,1.73.38,3.57,3.86,3.64,6,.09,2.89-1.74,4.84-3.12,7a31.49,31.49,0,0,1-3.55,3.84c-2.23,2.46-5.27,3.35-7.88,5-.19.12-.42.2-.61.32-.7.43-1.37,1.11-1,1.84a2.22,2.22,0,0,0,1.87.88,18,18,0,0,0,8.13-3,3.81,3.81,0,0,1,2.29-.81c1.72.12,2.77,2.74,1.58,4.11-2,2.28-3.69,4.89-6.65,6.13a2.47,2.47,0,0,1-.62.29c-3.24.26-6.47.9-9.21-1.87-1.42-1.43-3.09-2.53-3.18-4.85a35.86,35.86,0,0,0-5,1c-2.7.91-5.33.51-7.94-.11a4.32,4.32,0,0,1-3-2.92c-.45-1.2-.91-2.39-1.43-3.76a8.8,8.8,0,0,0-1.25,1c-2.88,3.38-5.72,6.79-8.61,10.17a50.12,50.12,0,0,1-3.4,3.73,7,7,0,0,1-2.14,1.18C101,67.7,99.87,68.09,98.5,68.59Zm46.47-24c3.21-.94,6.27-4.58,6.29-6.89a6.52,6.52,0,0,0-3.88,3.2c-.46.85-1.09,1.61-1.63,2.41C145.47,43.7,145.23,44.14,145,44.56Z"/><path class="cls-1" d="M422.45,49.86c2.94-1.14,4.65-3.62,6.57-6a3.38,3.38,0,0,1,3,1.25,6.82,6.82,0,0,1,1.32,2.14c.34,1-.87,1.3-1.28,2-1,1.67-1.91,3.43-2.93,5.32,2,.61,3.45-.82,5.21-.68a3.33,3.33,0,0,1-1.27,3.8c-1.71,1.43-3.74,1.66-5.79,1.81-1.18.09-2.6-1.4-3-2.84a11.4,11.4,0,0,1-.13-1.46c-1.58,1.05-2.93,2-4.36,2.87-1.64,1-3.36,1.81-5.05,2.7-.47.24-1,.39-1.45.66a10.7,10.7,0,0,1-8.85.92,2.92,2.92,0,0,0-2,0c-1.87,1-3.78.54-5.66.31s-2.86-2-3.15-4.27c-.37-2.89,1.08-5.19,2.17-7.61.91-2,1.9-4,3.11-6.52-1.75.78-3.07,1.25-4.28,1.93-1.79,1-3.5,2.19-5.23,3.3a35.89,35.89,0,0,0-3.26,2.14c-1.85,1.49-3.63,3.08-5.42,4.64-2.66,2.31-5.24,4.72-8,6.91a16.4,16.4,0,0,1-3.6,1.69c-2.87-2.28-3.34-4.26-1.7-7.1q4.08-7.08,8.25-14.13a25,25,0,0,1,1.82-2.37c.62.29,1,.46,1.42.67,2.18,1.22,2.63,3,1.26,5.18a13.46,13.46,0,0,0-1.86,3.56,14.18,14.18,0,0,0,1.79-1.12,58.53,58.53,0,0,1,9.64-6.6c2.2-1.24,4.55-2.22,6.86-3.27a9,9,0,0,1,2-.63c3-.64,4.82.17,5.89,2.91a4.84,4.84,0,0,1-.17,3.11A37.87,37.87,0,0,1,400,53.93a14.08,14.08,0,0,0-2.06,5.25l3.61.24c0-1,0-1.71.05-2.45a8.42,8.42,0,0,1,3.53-6.2c2.71-2,5.31-4.19,8.57-5.3,2.14-.73,4.25-1.11,6.49-.1,3,1.33,3.19,1.58,2.33,4.55a29.68,29.68,0,0,0-5.62.67,18.28,18.28,0,0,0-8.22,5.51,4.29,4.29,0,0,0,2.21-.1c3.07-1.32,6.14-2.66,9.14-4.13A13.51,13.51,0,0,0,422.45,49.86Z"/><path class="cls-1" d="M372.92,43c-.05,2.5-.3,2.52-2.38,3.27-5.11,1.83-10.36,3.43-14.72,6.84-.95.74-1.64,1.81-2.6,2.53-2.31,1.74-4.72,3.33-7.06,5-1,.72-1.89,1.57-2.84,2.35-1.14.94-2.57,2-3.88,1.44s-1.64-2.44-1.53-3.83a61.47,61.47,0,0,1,1.21-7.45c.37-1.92.88-3.83,1.47-6.3-2,1.36-3.57,2.49-5.19,3.55-4.67,3.06-9,6.64-13.8,9.51a14.31,14.31,0,0,1-8.94,2.1,3.2,3.2,0,0,1-2.32-1.26,11,11,0,0,1-2.23-9.49,13.71,13.71,0,0,1,2.89-6.2c1.07-1.31,2-2.7,3.12-4a4.16,4.16,0,0,1,5.59.05,2.3,2.3,0,0,1,.12,2.8,5.38,5.38,0,0,1-1.27,1.62c-1.94,1.45-3.05,3.56-4.22,5.54-.85,1.44-1,3.31-1.4,4.91a2.21,2.21,0,0,0,2.81.13C318.85,54.53,322,53,325,51c3.78-2.46,7.41-5.18,11-7.88,1.66-1.23,3.19-2.64,4.74-4,2.13-1.87,2.9-1.83,4.7.27a11.49,11.49,0,0,0,1.33,1.22c-.22,2-.37,3.87-.64,5.73s-.63,3.7-1,5.56l.41.29c1.36-.91,2.69-1.88,4.09-2.71,2.89-1.7,5.77-3.45,8.76-5a42.61,42.61,0,0,1,5.42-1.83A11.71,11.71,0,0,1,372.92,43Z"/><path class="cls-1" d="M88,61.5c.23.51.29.58.28.64-.19,1.27,0,3-.71,3.7a15.07,15.07,0,0,1-4.79,2.55c-1.45.59-3.22-.41-4.33-1.89-1.55-2.09-2.65-4.27-2-7-1.3-.36-1.86.49-2.56,1-2.35,1.72-4.65,3.49-7,5.14a13.51,13.51,0,0,1-7.68,2,2.57,2.57,0,0,1-2.18-1c-3.27-4-3.12-4.8-.46-8.71A35.62,35.62,0,0,1,68.65,46.52c3.92-2.17,8.09-3.37,12.61-2.13a2.51,2.51,0,0,0,3-.86,11.5,11.5,0,0,1,2.21-2c1.59-1.19,2.87-.87,3.87.89s.89,1.69-.39,3.17A23.86,23.86,0,0,0,87.19,50c-1.36,2.56-2.59,5.2-3.9,7.79a8.63,8.63,0,0,0-.76,5.5,23.6,23.6,0,0,1,2.64-1.19A24.26,24.26,0,0,1,88,61.5ZM61.2,60.88c4.46-.48,15.87-8.47,17-11.33-1.43.11-2.86.16-4.27.34a3.69,3.69,0,0,0-1.66.72c-2.67,2-5.38,4-7.89,6.24A27,27,0,0,0,61.2,60.88Z"/><path class="cls-1" d="M20.56,52.62A1.74,1.74,0,0,1,19.85,55a21.12,21.12,0,0,0-3.22,2.59,3.37,3.37,0,0,0-.14,4.93,9.9,9.9,0,0,0,6,3.25c7.6,1.17,14.64-.67,21.21-4.47a12.27,12.27,0,0,0,3.08-2.72c1.16-1.39,1.06-2.09-.2-3.4S44,52.72,42.75,51.46c-1.48-1.5-3-3-4.39-4.56-2.42-2.83-1.42-6.68,2.23-8,4.83-1.73,9.55-3.92,14.7-4.55,2.93-.36,6-.53,8.73,1a4.57,4.57,0,0,1,2.27,2.76c.46,1.54.12,2.59-1.28,3.29a34.82,34.82,0,0,1-3.32,1.25c-.86-1.46.88-2.1.42-3.48a23.71,23.71,0,0,0-6.83.59c-2.08.52-4.07,1.37-6.15,1.89s-3.51,2.12-5.66,2.38c-1,.13-1.12,1.43-.16,2.4,1.17,1.19,2.45,2.28,3.67,3.42s2.38,2.18,3.51,3.31A6.16,6.16,0,0,1,50.75,62,22.75,22.75,0,0,1,46,65.89c-2.85,1.91-6.08,2.89-9.1,4.35a10.7,10.7,0,0,1-3.13.66,27.33,27.33,0,0,1-11,0,20.66,20.66,0,0,1-7.92-4c-.24-.19-.39-.51-.64-.65-2.77-1.59-2.57-4.27-2.55-6.87,0-2.32,1.79-3.56,3.36-4.6S18.33,52.47,20.56,52.62Z"/><path class="cls-1" d="M474.86,12.46a20.94,20.94,0,0,1-1.81,8.15c-1,2.63-1.9,5.34-3,7.94-.84,2-2,3.82-3,5.72s-2.09,4.07-3.19,6.07c-2,3.56-4,7.09-5.94,10.64-.33.6-.61,1.23-.91,1.85-.83,1.71-1.65,3.43-2.49,5.15a13.87,13.87,0,0,1-3.8,4.16c-2.34-2.21-2.56-4-1.6-6.77,2.46-7,6.53-13.17,9.42-19.95,2.16-5.06,5.08-9.8,7.58-14.73,1-2,1.71-4.08,2.67-6.07a9.88,9.88,0,0,1,1.93-2.82,2.87,2.87,0,0,1,2.1-.35A7.49,7.49,0,0,1,474.86,12.46Z"/><path class="cls-1" d="M283.78,13.22a6.47,6.47,0,0,1,1.94,1.27c.48.57.9,1.77.62,2.25-.44.74-1.51,1.12-2.32,1.63a.66.66,0,0,1-.45-.05c-.66-.19-2.38-3.37-2.17-4.05C281.7,13.29,282.42,13,283.78,13.22Z"/></svg>