<svg id="Layer_1" data-name="Layer 1" xmlns="http://www.w3.org/2000/svg" viewBox="0 0 1856.98 344.76"><defs><style>.cls-1{fill:#fff;}</style></defs><path d="M1187.89,167.77c-3,2-7.08,4.72-11.24,7.32-7,4.35-16.09,3.64-21.2-1.54-4.5-4.58-5.32-14.23-.61-20.47,8.72-11.56,20-20.33,32.58-27.47,5-2.82,9.55-1.75,13.89,1.66,2.6,2,5.42,3.81,8.12,5.72,7,5,7.38,9.18,1.82,15.95-3.49,4.25-6.49,8.91-10.09,13.92,6,2.72,9.95,0,13.15-2.18,16.23-11,32.14-22.42,48.13-33.76.43-.3.45-1.17.89-2.46-6.85-6.11-19.43-8.29-17.74-22.22,5.59-1.12,9.55,2.33,14,4.22,5.48,2.35,10.91,4.9,16.56,6.72,4.59,1.48,7.76-.36,10.62-4.82,9.33-14.56,19.27-28.74,29.13-43,3.14-4.52,7.85-4.17,10,.7,1.62,3.69,2.27,7.45-.47,11.33-8,11.37-15.81,22.93-23.63,34.46-.5.73-.45,1.82-.94,4,3.78.46,7.24,1,10.72,1.27,10.62.72,21.26,1.34,31.89,2,5.26.31,9.4-1.76,13.61-5a234.35,234.35,0,0,1,24.65-16.81,27.22,27.22,0,0,1,24.13-2c5.14,2,9.59,4.83,10.09,11.16.48,6.1-3.86,8.72-8.09,11.5a66.1,66.1,0,0,1-36.74,11.27c-12.13,0-19.07,6.68-24.66,15.64-2.91,4.66-4.42,10.19-6.64,15.51,7.88,5.84,15.84,5.68,23.56,3.77,9-2.23,17.8-5.46,26.59-8.53,6-2.08,11.75-4.72,17.67-7s12-4.45,12.53-12.37c7.34,1.81,7.09,7.08,7.65,12,.52,4.59-2.32,6.73-5.83,8.23-8.55,3.67-17.2,7.1-25.77,10.72-5.19,2.19-10.17,4.95-15.49,6.77-7.48,2.55-15.27,6.59-22.77,6.25-21.43-1-29.91-14.44-24.82-35.8.9-3.78,2.92-7.3,4.72-11.67-2.43-.72-4.17-1.62-5.94-1.69-11.65-.45-23.31-.58-35-1.14-4.12-.19-6.73.89-8.94,4.61q-12.49,21-25.66,41.56c-1.41,2.2-4.19,3.52-6.34,5.25-1.46-2.36-3.57-4.55-4.19-7.11a12.32,12.32,0,0,1,.85-7.68c3.86-8,6.85-16.5,13.5-23.15,3.82-3.83,5.95-9.35,8.92-14.23-4.61-4.06-7.79-4.32-10,.86-1.64,3.93-4.09,6.74-8.33,7.93a5.8,5.8,0,0,0-3.2,2.24c-8.17,13.87-22.94,20.61-34,31.31-5.45,5.25-13.4,9.7-21.88,4.47C1194.37,174,1191.7,171.06,1187.89,167.77ZM1171.82,158c9.91-2.4,20.93-10.07,26.8-18.66C1190.83,139,1177.12,148.54,1171.82,158Zm235-49.64c-8.09-3.9-20.26-.19-26.86,8.24C1389.88,116.16,1399,115.3,1406.78,108.32Z"/><path d="M775.3,135.93c-5.72,6.34-11.4,12.72-17.18,19-5.18,5.63-10,11.75-15.86,16.55a42.7,42.7,0,0,1-15.66,8c-6.36,1.68-11-2-12.72-8.28-2.18-8-2.16-15.89,2.81-23a191.24,191.24,0,0,1,12.58-16.76c6.38-7.26,12.08-5.59,15.49,4.31-7.83,9.36-17.32,17.79-22,30.27,5,2,7.51-.53,9.77-2.7,12.21-11.75,24.16-23.79,36.48-35.42,6.26-5.91,13.12-11.17,20.34-17.26,3.59,2.9,6.37,8.06,4.55,14.94-2.3,8.68-4.36,17.47-7.44,25.88-8.08,22.1-16.22,44.21-25.2,66-7.09,17.16-16.5,33.14-26.79,48.7A178.66,178.66,0,0,1,712.08,294c-1.88,1.89-3.72,3.84-5.76,5.54-9.77,8.12-19.31,6.34-25.62-4.85-7.67-13.6-7.69-28-3.59-42.54,5.72-20.32,18.58-36.12,34.25-49.31,15.48-13,31.45-25.78,48.6-36.41,11.86-7.35,14.9-17.49,17.5-29Zm-8.64,33c-3.66,2.38-5.69,3.42-7.4,4.85-5.11,4.26-10,8.82-15.13,13a282.42,282.42,0,0,0-40,38.81,91,91,0,0,0-18.74,36c-2.23,8.8-5,18.09-.64,27.28,3.37,7.05,7.09,8.69,13.28,4s12.49-10.16,17.21-16.42c23.13-30.64,37.61-65.71,50.61-101.46C766.24,173.89,766.19,172.55,766.66,169Z"/><path d="M610.26,178.67c-5.7,14.08-17.75,20.43-29.74,19-7.29-.87-11.4-4.82-14-11.08-1.36-3.31-2.43-6.73-4.09-11.39-4.52,3-8.24,5.58-12,8.05C540,190.1,529.17,195.57,516,193.38c-10-1.66-17.83-5.55-19.47-17.8,14-10.8,28.7-21.38,47.74-23.51,5.32-.59,10-.16,11.55,7.18C539,161.75,525,170,509.45,180a21.57,21.57,0,0,0,15.31.24c14.83-4.58,27.94-12.47,39.85-22.23,2.93-2.4,4.89-6.18,6.78-9.61,9-16.31,17.3-33,26.87-49,4.37-7.29,10.89-13.37,16.81-19.65a32.43,32.43,0,0,1,8.93-6.3c4-2,8.42-2.85,12.17.45,3.15,2.78,3.48,9.4.79,13.82-4.84,8-9.59,16-15,23.61Q611,126.74,599.1,141.46c-3.92,4.83-8.71,9-13.32,13.22-7.54,6.95-10.35,16.17-12.28,25.66-1.23,6,1.53,8.95,7.94,7.81s12.71-3.7,19-5.77C603.76,181.29,607,179.92,610.26,178.67Zm12.9-84.85c-9.52,4.42-17.73,15.59-21.86,29.45C610.34,113.64,616.57,104.69,623.16,93.82Z"/><path d="M1059.51,176.83a26.25,26.25,0,0,0-1.87,2c-2,2.73-3.35,8.26-7.68,5.21-2.43-1.71-3.58-7.17-3.06-10.6.62-4.05,3.31-8,5.72-11.52,9.93-14.58,20.05-29,30.2-43.48,7.44-10.56,15-21,23.66-33-4,.54-6.26.4-8.17,1.17-10.43,4.16-12.15,3.11-13-9.16,5.3-4.44,12.1-5.71,18.92-7.17,5.43-1.17,10.72-3,16.06-4.54,1-.27,2-1.08,2.79-.86,11.81,3.26,24.48,2.52,35.74,8.61,15.88,8.59,21.51,25.23,13.72,41.5-8.46,17.71-22.42,30.5-38,41.32-8,5.55-17.85,8.45-26.86,12.55-5.11,2.33-10.07,5.11-15.36,6.9C1081.69,179.29,1070.87,180.58,1059.51,176.83Zm11.86-8.37c4.67-.24,7.36.14,9.72-.57,27.5-8.2,52.94-20.25,72.57-41.91,6.44-7.11,12.11-15.08,14.26-24.85,1.73-7.86,0-13.52-6.12-16.27-11.13-5-22.8-7.63-34.93-3.93a13.07,13.07,0,0,0-5.91,4.63c-11.06,14.5-22.11,29-32.8,43.78-4.75,6.57-8.65,13.76-12.79,20.44,7.1,7.54,7.07,7.51-.42,13.47C1074,164,1073.51,165.3,1071.37,168.46Z"/><path d="M320.93,118.65c-2.87.41-4.86.33-6.57,1-13.17,5-27,7-40.84,8.83-12.87,1.74-13.19,1.63-17.46-12.59,4.36-1.14,8.65-2.42,13-3.36,18.2-3.9,36.48-7.45,54.61-11.67,5.29-1.23,10.15-4.27,14.76-6.28,4.76-.39,9.34-.26,13.7-1.2,25.39-5.42,50.71-11.06,76.79-12.3,7.95-.37,14.85,1.82,23.48,6.34-3.8.87-5.76,1.47-7.77,1.75-10.8,1.49-21.94.49-32.42,4.43a6.81,6.81,0,0,1-2.91.57c-4.26-.45-8.61-1.93-12.69-1.35-3.23.45-6.55,5.4-9.05,4.85-11-2.41-17.86,6.91-27.26,8.42-12.43,2-20.19,8.93-26,20.28-7.4,14.43-16.81,27.84-25.49,41.6-2.3,3.63-5.72,6.65-7.55,10.46-2.69,5.61-4.19,11.78-6.68,17.49-.94,2.16-3,4.92-5,5.2s-4.5-2-6-3.75c-4.3-5.1-3.15-10.55.05-15.73q12.31-19.92,24.8-39.76c3.52-5.64,7.17-11.2,10.57-16.91C320,123.42,320.12,121.44,320.93,118.65Z"/><path d="M658.49,187.24c10.62-1.57,16.49-6.61,22.89-10.59,6.21-3.86,10.48-10.89,19.39-12.27-.39,2.05-.33,3.4-.88,4.41-7.3,13.31-18.32,22.75-31.93,28.91-8,3.63-15.2-.35-17.85-8.69-1-3.14-1.87-6.32-3-10.25-2.2.77-4.25,1.41-6.24,2.2-3.08,1.22-6,2.89-9.2,3.76-15.29,4.18-19.36-7.54-17.47-18.11.56-3.08,2.27-6.67,4.63-8.58,9.24-7.5,18.55-15.07,28.62-21.34,8.15-5.07,17.38-2.37,25.56.13l14.44-12.07c6.85,7.74,7.23,8.73,2.46,15.15-5.54,7.44-11.83,14.32-17.46,21.7a144.53,144.53,0,0,0-9.83,15C661,179.23,660.32,182.37,658.49,187.24Zm-28.78-18.61c13-3.89,29.71-16.48,32.23-23.81C649.66,150.08,638.78,156.14,629.71,168.63Z"/><path d="M1518.38,132.41c3.64-1.09,7.64-2.7,11.8-3.48,27.21-5.08,54.73-7.23,82.37-7.9,29.92-.73,59.85-1.6,89.78-1.78,10.85-.06,21.7,1.68,33.92,2.72-3.08,4.08-6.37,4.3-9.46,4.45-6,.28-12,.45-18,.33-14.22-.27-28.44-.79-42.67-1.09-1.93,0-4.44-.1-5.73,1-7.48,6.31-16.29,5.88-25.13,5.59a24.05,24.05,0,0,0-4-.23q-48.87,6.54-97.72,13.18c-1.32.18-2.64.44-4,.53C1520.59,146.35,1515.68,145.17,1518.38,132.41Z"/><path d="M440.68,144.39c-10-9.85-17-4.38-24.13,1.72-10.19,8.76-19.15,18.51-25,30.76-3.87,8.11-1.92,11.22,6.9,11a46.22,46.22,0,0,0,26.16-8.76c13.46-9.67,25-21,28.4-38.21.29-1.49,1.3-2.83,2.46-5.26C460,141.34,460,146.48,458,152c-6.65,18.36-17.39,33.53-34.12,44.11-10.55,6.67-27.93,6.43-38-.79a11.09,11.09,0,0,1-3.93-4.34c-3.48-8.82-5.64-18.05-.47-26.77,7.34-12.35,16.27-23.58,28.07-32a36.46,36.46,0,0,1,12.38-6.11C433,123.45,440.86,130.53,440.68,144.39Z"/><path d="M927.77,117.39c-13.88-.76-28-.71-43,6.46,4.07,2.81,6.79,5,9.75,6.69,4.86,2.87,9.81,5.62,14.84,8.2,10.66,5.46,14.53,15.16,15.75,26.08.69,6.22-1.19,12.42-7.73,14.88-23.54,8.88-47.25,11.28-70.37-1.16-11-5.95-10.75-15.68,1.39-23.89-.4,3.38-.18,5.94-1.07,8-2.08,4.89,0,7.63,4.12,9.61a33.36,33.36,0,0,0,6.49,2.54,92.14,92.14,0,0,0,45.39-.14,38.87,38.87,0,0,0,9.15-3.87c6.13-3.44,8-10.6,3.56-15.93-3.32-3.94-7.86-7-12.27-9.83-5.88-3.74-12.1-7-18.29-10.19-7.58-4-11.09-10.12-10.59-19.64,14.72-7.62,30.29-11.86,47.33-7.2C926.21,109.12,929.89,110.93,927.77,117.39Z"/><path d="M844.51,90.32c6.74,3.88,8.43,6.39,6.41,12.65a128.57,128.57,0,0,1-8.51,20c-4.41,8.43-9.52,16.49-15.16,26.12-1.69-2.52-3.31-4-3.68-5.74a10.33,10.33,0,0,1,.79-5.79C831,121.81,837.76,106.1,844.51,90.32Z"/><path class="cls-1" d="M1171.82,158c5.3-9.42,19-19,26.8-18.66C1192.75,147.89,1181.73,155.56,1171.82,158Z"/><path class="cls-1" d="M1406.78,108.32c-7.74,7-16.9,7.84-26.86,8.24C1386.52,108.13,1398.69,104.42,1406.78,108.32Z"/><path class="cls-1" d="M766.66,169c-.47,3.6-.42,4.94-.84,6.1-13,35.75-27.48,70.82-50.61,101.46-4.72,6.26-10.91,11.67-17.21,16.42s-9.91,3-13.28-4c-4.4-9.19-1.59-18.48.64-27.28a91,91,0,0,1,18.74-36,282.42,282.42,0,0,1,40-38.81c5.16-4.18,10-8.74,15.13-13C761,172.37,763,171.33,766.66,169Z"/><path class="cls-1" d="M623.16,93.82c-6.59,10.87-12.82,19.82-21.86,29.45C605.43,109.41,613.64,98.24,623.16,93.82Z"/><path class="cls-1" d="M1071.37,168.46c2.14-3.16,2.64-4.46,3.58-5.21,7.49-6,7.52-5.93.42-13.47,4.14-6.68,8-13.87,12.79-20.44,10.69-14.77,21.74-29.28,32.8-43.78a13.07,13.07,0,0,1,5.91-4.63c12.13-3.7,23.8-1.05,34.93,3.93,6.14,2.75,7.85,8.41,6.12,16.27-2.15,9.77-7.82,17.74-14.26,24.85-19.63,21.66-45.07,33.71-72.57,41.91C1078.73,168.6,1076,168.22,1071.37,168.46Z"/><path class="cls-1" d="M629.71,168.63c9.07-12.49,19.95-18.55,32.23-23.81C659.42,152.15,642.73,164.74,629.71,168.63Z"/></svg>