<?xml version="1.0" encoding="utf-8"?>
<!-- Generator: Adobe Illustrator 25.2.0, SVG Export Plug-In . SVG Version: 6.00 Build 0)  -->
<svg version="1.1" id="Layer_1" xmlns="http://www.w3.org/2000/svg" xmlns:xlink="http://www.w3.org/1999/xlink" x="0px" y="0px"
	 viewBox="0 0 1396.34 303.5" style="enable-background:new 0 0 1396.34 303.5;" xml:space="preserve">
<style type="text/css">
	.st0{fill:#FFFFFF;}
</style>
<path d="M345.16,89.63c3.63,4.92,4.59,9.7,1.19,15.52c-10.73,18.39-21.19,36.93-31.57,55.52c-7.96,14.25-15.66,28.64-23.39,43.02
	c-0.88,1.63-1.14,3.6-2.16,6.98c2.97-1.17,4.85-1.48,6.19-2.5c23.88-18.23,45.15-39.21,65.54-61.23
	c14.25-15.38,29.56-29.77,44.37-44.63c2.84-2.85,5.99-4.12,9.1-2.67c2.56,3.95,4.71,7.26,7.11,10.97
	c-4.95,13.68-8.37,28.89-17.62,39.77c-0.92,5.94-1.16,10.85-2.49,15.43c-2.97,10.21-6.57,20.23-9.77,30.37
	c-2.04,6.46-1.25,12.97-0.66,21.02c9.97-3.23,17.27-8.35,23.04-14.92c6.55-7.46,12.89-15.48,17.44-24.23
	c7.2-13.85,13.06-28.42,19.03-42.88c1.99-4.82,2.6-10.21,3.86-15.34c0.64-2.59,1.14-5.22,2.02-7.72c1.22-3.51,2.64-7.15,7.43-6.57
	c3.9,0.48,7.54,4.96,6.93,9.48c-1.03,7.56-2.5,15.1-4.31,22.52c-2.82,11.57-4.89,23.52-9.45,34.4
	c-5.22,12.48-12.43,24.2-19.49,35.83c-5.79,9.55-14.59,16.43-23.95,22.28c-13.25,8.29-23.85,5.64-31.79-6.36
	c-3.98-6.01-5.34-12.79-5.47-19.93c-0.28-15.92,3.85-30.96,8.91-45.82c2.01-5.89,4.04-11.77,6.14-17.9c-1.36,0-2.23-0.25-2.49,0.04
	c-11.65,13.18-22.75,26.89-34.97,39.51c-13.36,13.8-25.6,28.89-42.33,39.19c-6.13,3.77-11.1,9.49-17.34,13.02
	c-12.69,7.18-24-1.44-24.04-14.55c-0.01-2.96,0.23-6.1,1.25-8.84c3-8.11,5.66-16.48,9.84-23.98c14.76-26.46,30.06-52.62,45.24-78.85
	c2.16-3.73,4.68-7.29,7.29-10.73C336.54,91.26,340.04,88.92,345.16,89.63z M399.57,118.69c-8.44,5.63-23.45,23.1-24.9,28.81
	C384.57,139.34,393.21,130.04,399.57,118.69z"/>
<path d="M791.84,97.75c-24.28,14.94-50.88,41.98-54.65,56.18c3.51,0.5,6.9,1.56,10.22,1.36c19.33-1.13,38.36-4.15,56.72-10.48
	c8.76-3.01,17.37-6.45,27.06-10.07c1.56,1.42,4.09,3.11,5.8,5.41c4.94,6.64,3.18,13.27-4.46,16.95
	c-18.34,8.85-37.14,15.89-57.68,18.35c-12,1.44-23.7,2.87-35.54-0.02c-13.44-3.28-20.65-12.17-21.36-26.07
	c-0.05-0.95-0.45-1.89-0.94-3.83c-2.18,1.2-4.48,1.81-5.79,3.29c-8.45,9.59-19.66,14.68-31.15,19.12
	c-9.62,3.72-19.17-4.21-19.18-14.72c-0.01-12.97,5.5-24.18,11.84-34.56c12.84-21.04,25.53-42.11,35.78-64.57
	c0.78-1.72,2.32-3.1,3.4-4.5c9.86,3.31,9.51,3.33,8.56,12.44c-0.64,6.13-2.56,11.52-5.5,16.82c-5.48,9.87-10.8,19.84-16,29.87
	c-5.89,11.36-11.56,22.83-16.07,35.75c5.48-3.23,11.04-6.35,16.43-9.72c22.86-14.29,45.67-28.67,68.53-42.97
	c2.53-1.58,5.23-2.93,7.95-4.19c7.58-3.5,11.11-1.96,14.35,6.12C790.63,94.93,791.15,96.11,791.84,97.75z"/>
<path d="M546.59,134.84c3.44-7.8,6.58-14.92,10.14-22.99c10.31-1.76,20.09,1.78,28.27,9.44c1.72,1.61,1.93,5.65,1.63,8.45
	c-0.85,7.86-2.32,15.66-3.68,24.32c1.46-0.73,2.62-1.05,3.42-1.75c12.22-10.72,24.29-21.61,36.6-32.22
	c10.13-8.73,21.66-15.3,33.65-21.2c4.44-2.18,7.5-1.46,11.56,2.66c-1.96,2.23-3.74,4.81-6.05,6.8c-8.03,6.94-16.77,13.13-24.25,20.6
	c-13.85,13.84-26.89,28.47-40.48,42.57c-5.25,5.45-11.06,10.37-16.67,15.47c-3.68,3.35-7.66,5.23-12.58,2.32
	c-5.14-3.04-7.55-7.65-6.78-13.39c0.88-6.55,2.46-13.02,3.81-19.51c1.83-8.79,3.79-17.55,5.56-26.34c0.29-1.43-0.09-3-0.23-6
	c-2.51,1.89-4.4,2.66-5.28,4.06c-9.54,15.21-19.31,30.2-33.42,41.76c-1.48,1.21-2.19,3.31-3.41,4.88
	c-11.2,14.53-25.33,25.23-42.35,32.04c-4.72,1.89-9.54,2.65-14.37-0.12c-8.2-4.71-12.03-14.92-8.18-24.68c2.64-6.7,6-13.26,10-19.23
	c5.9-8.81,12.11-17.53,19.21-25.37c5.26-5.81,11.85-10.56,18.35-15.05c6.7-4.62,14-3.97,20.61,0.59
	C536.29,126.11,540.47,129.9,546.59,134.84z M540.73,140.59c-9.56-8.24-12.75-8.61-22.05-3.67c-17.06,9.07-26.28,24.8-34.94,40.99
	c-1.48,2.77-2.37,5.85-3.53,8.79c0.65,0.53,1.3,1.06,1.95,1.59C506.84,178.91,523.69,159.81,540.73,140.59z"/>
<path d="M1167.41,95.69c-9.74,3.97-19.25,8.71-29.29,11.68c-10.15,3.01-20.81,4.26-31.25,6.29c-6.16,1.2-12.48,1.89-18.43,3.76
	c-19.43,6.09-39.52,8.75-59.45,12.29c-3.25,0.58-6.35,1.96-9.56,2.8c-7.59,1.99-15.95-1.27-19.95-7.67c-3.12-5-2.34-9.12,3.09-11.34
	c5.49-2.24,11.31-4.2,17.15-4.95c41.49-5.34,83.02-10.33,124.54-15.48c7.5-0.93,14.93-1.01,22.37-0.52
	C1166.89,93.6,1167.15,94.64,1167.41,95.69z"/>
<path class="st0" d="M399.57,118.69c-6.36,11.35-14.99,20.65-24.9,28.81C376.11,141.79,391.13,124.31,399.57,118.69z"/>
<path class="st0" d="M540.73,140.59c-17.04,19.22-33.89,38.32-58.56,47.7c-0.65-0.53-1.3-1.06-1.95-1.59
	c1.16-2.94,2.05-6.02,3.53-8.79c8.66-16.19,17.88-31.92,34.94-40.99C527.98,131.98,531.17,132.35,540.73,140.59z"/>
</svg>
